<?xml version="1.0" encoding="utf-8"?>
<!-- Generator: Adobe Illustrator 25.2.3, SVG Export Plug-In . SVG Version: 6.00 Build 0)  -->
<svg version="1.1" id="Layer_1" xmlns="http://www.w3.org/2000/svg" xmlns:xlink="http://www.w3.org/1999/xlink" x="0px" y="0px"
	 viewBox="0 0 32 32" style="enable-background:new 0 0 32 32;" xml:space="preserve">
<style type="text/css">
	.st0{fill:url(#SVGID_1_);}
	.st1{fill:#FFFFFF;}
</style>
<g>
	<linearGradient id="SVGID_1_" gradientUnits="userSpaceOnUse" x1="4.9136" y1="15.9941" x2="27.0859" y2="15.9941">
		<stop  offset="0" style="stop-color:#F15A24"/>
		<stop  offset="1" style="stop-color:#FBB03B"/>
	</linearGradient>
	<polygon class="st0" points="12.2,24.2 10.2,22.1 10.2,22.1 4.9,16.9 7.2,14.5 12.5,19.8 24.8,7.5 27.1,9.9 12.5,24.5 	"/>
	<path class="st1" d="M24.8,8.1l1.8,1.8L14.3,22.1l-1.8,1.8l0,0l-1.8-1.8l0,0l-5.3-5.3l1.8-1.8l5.3,5.3L24.8,8.1 M24.8,7l-0.6,0.6
		L12.5,19.2l-4.7-4.7l-0.6-0.6l-0.6,0.6l-1.8,1.8l-0.6,0.6l0.6,0.6l4.7,4.7l0,0l0.6,0.6l1.8,1.8l0.6,0.6l0.6-0.6l1.8-1.8l12.2-12.2
		l0.6-0.6l-0.6-0.6l-1.8-1.8L24.8,7L24.8,7z"/>
</g>
</svg>
