<?xml version="1.0" encoding="utf-8"?>
<!-- Generator: Adobe Illustrator 23.0.2, SVG Export Plug-In . SVG Version: 6.00 Build 0)  -->
<svg version="1.1" id="svg2" xmlns="http://www.w3.org/2000/svg" xmlns:xlink="http://www.w3.org/1999/xlink" x="0px" y="0px"
	 viewBox="0 0 1920 1080" style="enable-background:new 0 0 1920 1080;" xml:space="preserve">
<style type="text/css">
	.st0{opacity:0.1;fill:#FFFFFF;enable-background:new    ;}
</style>
<title>background</title>
<path class="st0" d="M1252,774.9c0,0-135.2-44.1-154-71.4s-9.4-145.5-9.4-145.5c36.7-27.2,40.4-107,40.4-107s2.8,14.1,16.9,4.7
	s18.8-104.2,15-112.7s-19.7-5.6-19.7-5.6s22.5-123.9-16-187.8S995.7,76.3,960,76.3s-126.8,9.4-165.3,73.2s-16,187.8-16,187.8
	s-16-2.8-19.7,5.6s0.9,103.3,15,112.7s17-4.7,17-4.7s3.8,79.8,40.4,107c0,0,9.4,118.3-9.4,145.5s-154,71.4-154,71.4
	s-143.7-3.7-206.6,98.6c-45.6,74.2-43.4,149.3-47.6,206.5h1092.4c-4.2-57.2-2-132.3-47.6-206.5C1395.7,771.2,1252,774.9,1252,774.9z
	"/>
</svg>
