<?xml version="1.0" encoding="utf-8"?>
<!-- Generator: Adobe Illustrator 27.3.1, SVG Export Plug-In . SVG Version: 6.00 Build 0)  -->
<svg version="1.1" id="Layer_1" xmlns="http://www.w3.org/2000/svg" xmlns:xlink="http://www.w3.org/1999/xlink" x="0px" y="0px"
	 viewBox="0 0 64 64" style="enable-background:new 0 0 64 64;" xml:space="preserve">
<style type="text/css">
	.st0{fill:url(#SVGID_1_);}
	.st1{fill:url(#SVGID_00000007394087812533245400000015666703282752267178_);}
	.st2{fill:url(#SVGID_00000124119588102121149980000007997208515804506241_);}
</style>
<linearGradient id="SVGID_1_" gradientUnits="userSpaceOnUse" x1="31.9601" y1="27.6821" x2="23.8667" y2="63.2354" gradientTransform="matrix(1 0 0 -1 0 66)">
	<stop  offset="0" style="stop-color:#EF4136"/>
	<stop  offset="1" style="stop-color:#FBB040"/>
</linearGradient>
<path class="st0" d="M58.2,37.8C58.2,52.3,46.5,64,32,64S5.8,52.3,5.8,37.8S32,0,32,0S58.2,23.3,58.2,37.8z"/>
<linearGradient id="SVGID_00000136369532588831310690000014164727017814949260_" gradientUnits="userSpaceOnUse" x1="28.7399" y1="18.7312" x2="44.3487" y2="59.343" gradientTransform="matrix(1 0 0 -1 0 66)">
	<stop  offset="0" style="stop-color:#EF4136"/>
	<stop  offset="1" style="stop-color:#FBB040"/>
</linearGradient>
<path style="fill:url(#SVGID_00000136369532588831310690000014164727017814949260_);" d="M50.7,20.6c-3.9,9.5-13.3,16.2-24.2,16.2
	c-7.2,0-13.7-2.9-18.4-7.6c-1.4,3-2.3,5.9-2.3,8.6C5.8,52.3,17.5,64,32,64s26.2-11.7,26.2-26.2C58.2,32.7,55,26.5,50.7,20.6z"/>
<linearGradient id="SVGID_00000090289600712019379380000006573360546548571802_" gradientUnits="userSpaceOnUse" x1="20.6728" y1="9.2086" x2="35.1254" y2="32.1882" gradientTransform="matrix(1 0 0 -1 0 66)">
	<stop  offset="0" style="stop-color:#EF4136"/>
	<stop  offset="0.9368" style="stop-color:#FBB040"/>
</linearGradient>
<path style="fill:url(#SVGID_00000090289600712019379380000006573360546548571802_);" d="M46,46.1c-14.5,0-26.2-11.7-26.2-26.2
	c0-3.6,1.6-7.7,4.1-11.9C16.2,16.1,5.8,28.7,5.8,37.8C5.8,52.3,17.5,64,32,64c12.5,0,23-8.8,25.6-20.6C54.1,45.2,50.2,46.1,46,46.1z
	"/>
</svg>
