<?xml version="1.0" encoding="utf-8"?>
<!-- Generator: Adobe Illustrator 23.0.2, SVG Export Plug-In . SVG Version: 6.00 Build 0)  -->
<svg version="1.1" id="Layer_1" xmlns="http://www.w3.org/2000/svg" xmlns:xlink="http://www.w3.org/1999/xlink" x="0px" y="0px"
	 viewBox="0 0 32 32" style="enable-background:new 0 0 32 32;" xml:space="preserve">
<style type="text/css">
	.st0{fill:url(#SVGID_1_);}
	.st1{fill:#FFFFFF;}
</style>
<title>heartSolid</title>
<g>
	<linearGradient id="SVGID_1_" gradientUnits="userSpaceOnUse" x1="16.0001" y1="0.4125" x2="16.0001" y2="30.7058">
		<stop  offset="0" style="stop-color:#F15A24"/>
		<stop  offset="1" style="stop-color:#FBB03B"/>
	</linearGradient>
	<path class="st0" d="M16,31.1C14,28.2,5.8,15.7,5.8,10.7C5.8,5.1,10.4,0.5,16,0.5c5.6,0,10.2,4.6,10.2,10.2
		C26.2,15.7,18,28.2,16,31.1z M16,5.7c-2.8,0-5,2.2-5,5s2.2,5,5,5s5-2.2,5-5S18.8,5.7,16,5.7z"/>
	<path class="st1" d="M16,1c5.3,0,9.7,4.3,9.7,9.7c0,4.2-6.4,14.6-9.7,19.6c-3.3-5-9.7-15.4-9.7-19.6C6.3,5.3,10.7,1,16,1 M16,16.2
		c3,0,5.5-2.5,5.5-5.5c0-3-2.5-5.5-5.5-5.5s-5.5,2.5-5.5,5.5C10.5,13.7,13,16.2,16,16.2 M16,0C10.1,0,5.3,4.8,5.3,10.7
		C5.3,16.6,16,32,16,32s10.7-15.4,10.7-21.3C26.7,4.8,21.9,0,16,0L16,0z M16,15.2c-2.5,0-4.5-2-4.5-4.5c0-2.5,2-4.5,4.5-4.5
		s4.5,2,4.5,4.5C20.5,13.2,18.5,15.2,16,15.2L16,15.2z"/>
</g>
</svg>
