<?xml version="1.0" encoding="utf-8"?>
<!-- Generator: Adobe Illustrator 23.0.2, SVG Export Plug-In . SVG Version: 6.00 Build 0)  -->
<svg version="1.1" id="svg2" xmlns="http://www.w3.org/2000/svg" xmlns:xlink="http://www.w3.org/1999/xlink" x="0px" y="0px"
	 viewBox="0 0 1836.4 972" style="enable-background:new 0 0 1836.4 972;" xml:space="preserve">
<style type="text/css">
	.st0{opacity:0.1;}
	.st1{fill:#FFFFFF;}
</style>
<title>map</title>
<g id="layer1" class="st0">
	<path id="path2830" class="st1" d="M459.5,970.6c-7.5-3.1-9.6-6.1-7.8-11.2c0.8-2.4,2.4-4.3,3.5-4.3s6,2.8,10.8,6.2
		c4.8,3.4,10.8,7,13.2,8l4.4,1.7l-5.4,0.1c-3.2,0.1-6.4,0.4-9.6,0.8C465.5,972.2,462.4,971.7,459.5,970.6L459.5,970.6z M442.5,954.8
		c-1.6-0.9-3.5-1.1-5.2-0.7c-1.9,0.6-3.3-0.3-4.6-3.1c-1.1-2.2-3-4.4-4.3-4.9c-3-1.1-9.2-12.1-12.6-22.4c-1.7-5.2-4.1-8.8-6.9-10.5
		c-5-3.1-5.3-4.5-1.5-5.8c4.4-1.5,5.2-10,1.5-15.7c-1.8-2.7-2.7-5.9-2.1-7.4c0.6-1.8-1.1-4.9-5.3-9.6c-5.3-5.9-6.3-8-6.5-14.3
		c-0.1-4-1-8.3-2-9.6c-1.2-1.6-1.4-7.2-0.8-18.2c0.7-12,0.3-19.4-1.6-29.8c-2.8-15.3-4.3-43.9-3.5-70c0.2-5.7-0.3-11.4-1.5-17
		c-2.3-9.2-13.1-20.8-26.4-28.5c-9.5-5.5-10.9-6.9-14.6-15.3c-2.7-5.9-5.9-11.6-9.6-16.9c-3-4.2-6.3-10.4-7.3-13.8
		c-3.1-10.6-8.7-21.3-12.5-24c-2-1.4-4.3-5.2-5.1-8.3c-1.3-5.1-0.9-6.5,3.1-12.9c4.4-6.9,4.4-7.2,1.5-8c-7.2-2.1-4.2-12.7,8.8-30.6
		c8.6-11.9,11.1-21,8.8-31.5c-0.9-4-1.7-8.2-1.8-9.3s-0.7-2-1.4-2s-0.6-1.5,0.3-3.2c1.4-2.8,1-3.5-2.2-5.2c-4.7-2.3-11.8,0-11.8,3.9
		c0,4.7-1.9,5-8.1,1.5c-3.3-1.9-6.8-3.4-7.6-3.4s-4.4-2.6-7.7-5.8s-6.9-6.5-7.9-7.3s-1.9-3.3-1.9-5.3c-0.2-2.5-1.2-4.8-2.9-6.6
		c-2.1-2.5-3.7-5.4-4.6-8.5c-1.2-4.1-2.1-5.1-3.3-3.8c-2.4,2.7-6,2.2-14.8-2.1c-4.6-2.2-9.3-6-11.2-8.9c-2-3-4.7-5.6-7.7-7.6
		c-4-2.3-5-2.3-10.8,0.2l-6.4,2.7l-19.7-10.5c-12.1-6.4-21.5-12.6-24.4-16c-4.5-5.2-4.7-5.8-3.2-12.3c1.4-5.9,1.1-7.8-1.9-14.6
		c-2.5-5.2-5.5-10.1-9.2-14.6c-3.1-3.7-5.4-7.4-4.9-8.2s-1.8-6-4.9-11.6c-3.6-6.4-6.1-13.2-6.7-18.2c-0.8-6.4-1.8-8.4-4.7-9.8
		c-3.1-1.6-4-1.4-5.8,1.3c-2.5,3.8-1.8,7.8,3.8,21.1c2.4,5.7,4.1,11.7,5.2,17.8c0.7,4.8,2,9.6,3.9,14.1c3.7,8,1.3,7.8-4.5-0.3
		c-3.4-4.8-4.4-7.4-3.7-10.4c0.7-3.2,0-4.7-3.6-7.6c-5.4-4.4-6.6-7.2-4.6-11.3c1.2-2.4,0.6-5-2.3-11.4c-3-6.4-3.6-9.6-2.9-14.5
		c1.2-7.9-2-15-8-17.7c-3.5-1.6-4.7-3.3-5.4-7.9c-0.5-3.2-1.5-8.3-2.1-11.1s-0.6-5.6,0.1-6.2s0.3-2.7-1.1-4.9
		c-1.9-3.3-2.1-4.8-0.7-8.1c0.9-2.3,1.3-4.8,0.8-5.7s0.8-3.6,2.8-6c2.5-3.2,4.5-6.7,6-10.5c1.3-3.4,5.2-9.7,8.8-14.1
		c4-5.2,7.4-10.8,10-16.8c2.7-6.9,4.3-9,6.7-9c1.7,0,3.1,0.9,3,2c-0.5,4.6,2.9,3.2,6.6-2.8c2.2-3.6,3.4-6.7,2.6-7s-1.4-1.6-1.4-3
		s-3.1-5.7-6.8-9.7c-6.2-6.6-6.6-7.5-4.5-10c1.7-2,1.9-3.5,0.8-5.7c-2-3.8,1.1-12.4,4.5-12.4c1.4,0,1.8-0.5,0.9-1.2
		c-1.9-1.5-2.8-5-2.5-10.1c0.4-8.1-1.2-11.5-6.7-14c-3.6-1.7-7-3.9-10.1-6.4c-2.6-2.1-5.8-3.9-7.2-3.9s-7.8-1.5-14.3-3.3
		c-10.4-2.9-12.2-3-15.8-1c-7.4,4.2-15.3,5.9-18.5,4c-2.4-1.4-5-0.5-14.2,4.7c-6.2,3.5-13.6,7-16.4,7.7c-4.2,1.2-8.3,2.9-12.1,5.1
		c-10.8,6-26.3,12-30.6,11.9c-2.8-0.1-0.9-1.4,6.5-4.6c12.5-5.4,25.3-12.4,26.5-14.5c1.5-2.6-1.7-3.5-5.5-1.6
		c-2.8,1.4-4.5,1.3-7.8-0.6l-4.2-2.4l4.5-2.6c5.1-2.9,6.7-6.2,5.6-11.3c-1.1-5,5.2-8.6,18.7-10.9c7.3-1.2,12.8-3.2,16.5-6
		c6.6-4.9,5.4-8.6-1.6-5.4c-3.4,1.5-5.8,1.5-10.8,0.1c-6-1.8-6.3-2-3.6-4.2c4.5-3.6,13.8-5.8,20-4.7c3.5,0.8,7.2,0.2,10.3-1.6
		l4.7-2.7L78,88.4c-1.7-2-3.1-4.1-3.1-4.6c0-1.5,8.9-4.5,13.4-4.5c2.2,0,8.3-1.8,13.5-3.9s17.3-5.1,26.8-6.5
		c15.4-2.3,18.7-2.4,30.2-0.3c7.1,1.3,16.9,2.8,21.8,3.4c6.5,0.9,12.9,2.3,19.2,4.2c13.2,4,21.8,3.9,36.5-0.2
		c6.5-1.8,13.1-2.9,14.6-2.3c2,0.5,4,0.2,5.8-0.8c2.3-1.3,4-1.2,7.3,0.7c2.9,1.7,6.5,2.1,11.5,1.5c5.2-0.7,9.7,0,16.4,2.5
		c5,1.9,10.7,3.4,12.5,3.4c3.2,0,3.2,0.1,0.4,2.3s-2.8,2.4-0.2,3.5c1.5,0.6,6.6,0.7,11.4,0.1c8.7-1,8.8-1,11.2,4.2l2.4,5.2l3.2-4.4
		c1.8-2.5,6.1-5.3,10.1-6.6c6.1-2,7.9-2,14,0.1c4.3,1.4,8.8,1.9,13.3,1.4c4.9-0.8,7.2-0.3,10.4,2.2c4,3.2,4.1,3.2,7.7,0.1
		c2.8-2.1,5.9-3.7,9.2-4.8c7.3-2.2,9.7-6.9,5.4-10.3c-3.1-2.4-3-2.5,5.1-6.9c6-3.3,8.8-4,10-2.7s1.2,2.7,0,5.2
		c-2.1,4.2,0.5,10.6,3.7,9.3c1.4-0.5,2.9-0.5,4.3,0c1.9,0.8,1.8,1.4-0.2,4.9c-5.7,9.5,7,6.8,15.7-3.3c3.4-4.1,9.1-5.4,14-3.2
		c3.3,1.4,3,2.5-2.5,9.1c-6.5,7.8-9.8,9.4-19.5,9.4c-4.7,0-10.3,1.1-12.9,2.6c-3.6,2-5.3,2.2-8.2,0.8c-5.3-2.6-7.1-0.4-3.3,4
		l3.2,3.8l-6.4,2c-4.3,1.2-8.7,2-13.1,2.2c-5.3,0.2-6.6,0.8-6.7,3.1c0,2-2.6,4-8.1,6.5c-18,8-33.2,22.5-27.7,26.3
		c1,0.7,2.7,3.3,3.6,5.7c1,2.6,3.2,4.6,5.9,5.3c2.3,0.5,8.1,3.1,13,5.7s10.9,5.3,13.3,5.8c6.7,1.6,6.8,1.8,3.6,10.5
		c-2.7,7.4-2.7,8.5-0.7,12.9c1.2,2.6,3.1,4.8,4.1,4.7c4.8-0.2,9.4-5.1,12.2-13.2c2.7-7.7,3.9-9.2,11.6-13.7
		c11.4-6.7,16.1-13.2,14.9-20.6c-0.8-4.8-0.4-5.9,3.4-8.9c2.4-1.8,5.5-6.3,7-9.8c3.3-7.9,8.5-10.7,17.4-9.1
		c7.9,1.4,17.1,6.9,18.3,10.7c0.4,2.2,0.1,4.4-0.8,6.3c-1.4,2.9-1.1,4.1,1.6,7.3l3.3,3.8l5.3-3c3.7-2.2,7.2-4.6,10.5-7.2l5.1-4.2
		l1.2,3.6c0.7,1.9,0.8,3.9,0.4,5.8c-0.4,1.8-0.1,3.7,0.8,5.4c0.9,1.8,1,3.9,0.2,5.8c-0.9,1.8-0.3,4.6,2.1,9.2
		c3.4,6.6,3.4,6.6,0.4,8.9c-3.9,3-1.4,6.2,2.9,3.7c4.3-2.5,9.2-2.2,12.2,0.8c4.5,4.4,0.8,9.7-11.1,15.9c-12.9,6.7-18.7,8-35.6,8.1
		c-12.5,0.1-14.1,0.6-26.2,6.9c-7.1,3.7-12.9,7.4-12.9,8.2c0,3.3,2.2,3,10.8-1.4c5.1-2.6,11.6-4.7,14.7-4.7c5.3,0,5.5,0.2,3.9,3.6
		c-1.2,2.3-2.8,4.3-4.6,6.1c-2.5,2.2-2.6,3.1-1.1,6.8c2.3,5.6,8.4,8.3,15.6,6.9l5.7-1l-4.4,3.3c-2.7,2-5.7,3.4-8.9,4.4
		c-3.9,1.2-7.6,2.8-11.2,4.8c-3.8,2.1-7.5,3.2-8.6,2.5c-2.3-1.6,0.1-4,7.7-7.4c6.8-3.1,5.7-6.4-1.6-4.9c-2.8,0.6-12,4.4-20.4,8.4
		c-13.1,6.3-15.4,8-16.2,11.8c-0.9,4.7-4.1,6.9-15.4,10.6c-3.9,1.4-7.4,3.6-10.4,6.4c-2.7,2.9-5.7,5.5-8.9,7.8
		c-2.8,1.9-5.5,5.3-6,7.6c-0.8,3.6-1,3.7-2,0.9c-1.9-5.3-4.6-0.1-4.8,8.9c-0.2,9.2-4.4,15.5-13.8,20.3c-9.6,4.9-23.2,16.6-26,22.2
		c-2.4,5-2.5,6.9-1,19.6c1.4,11.9,1.3,14.9-0.5,18.8c-1.4,2.9-3,4.3-4.3,3.8c-3.2-1.3-7-15.6-6-22c0.8-4.4,0.3-6.1-2.8-9.2
		c-2.4-2.5-4.6-3.4-6.5-2.8c-1.6,0.5-6.1-0.5-10-2.3c-6-2.8-7.9-3-12.1-1.5c-2.9,1-5.8,3.5-6.7,5.8c-1.4,3.4-2.3,3.8-6.2,2.9
		c-3-0.8-5.8-1.9-8.5-3.3c-5.4-3-8.4-2.8-14.5,1c-2.8,1.8-8.6,5.2-12.8,7.6c-4.9,2.7-8.2,5.9-9.1,8.5c-0.8,2.3-3.5,11.2-6.1,19.8
		l-4.7,15.6l2.4,10.1c4.4,18.5,10.5,24.1,23.2,21.1c9.6-2.3,15.3-6.8,17.4-13.8c1.4-4.5,2.8-5.9,7.1-7.3c6.5-2,9.3-2,11.8-0.3
		c2.1,1.4,1.4,3.8-7.9,25.8c-6.4,15.1-5.9,16.4,5,14.7c9.9-1.6,19-0.4,20,2.7c0.4,1.2-0.3,9.1-1.5,17.7c-2.2,15.3-2.2,15.6,1,21.3
		c1.8,3.2,5.1,6.8,7.4,8.1c3.7,2.1,4.8,2.1,9.4,0c7.3-3.3,11.3-3,16.4,1.5c4.1,3.6,4.6,3.7,7.8,1.4c2.4-2.1,4.4-4.6,5.8-7.5
		c2.9-6.2,7.7-10.6,11.7-10.7c1.7,0,4.6-1.9,6.5-4.1c3.9-4.5,10.7-6,7.4-1.6c-2.8,3.7-4.4,15.6-2.6,19.3c1.5,3.1,1.6,3.1,4.4-0.6
		c1.9-2.6,2.3-4.3,1.3-5.5c-2.5-2.8-1.8-5.1,3-8.9c4.9-4,8.7-3.6,12.9,1.4c3.1,3.6,19.7,8.5,24.4,7.2c7.2-2,26.8,11,34.1,22.7
		c3.5,5.6,14.7,11.2,19.6,9.8c10.1-2.8,23.9,8.3,27.2,21.8c1,4,2.4,7.7,3.2,8.3c2.2,1.5-1.1,7.3-8.1,14.6c-4.5,4.7-5.6,6.7-4.3,8.1
		s3.3,0.2,8.4-4.9c7.3-7.4,9.7-8.1,13.4-4.1c2.2,2.4,2.2,2.9-0.9,6.5c-1.8,2.1-4.3,3.9-5.6,3.9s-0.8,0.8,1.3,1.7
		c2.9,1.3,4.4,0.9,7.4-1.7c7.8-6.9,9.6-7.2,16.6-3c4.5,2.8,6.3,4.9,6.1,7.1c-0.6,6.2,0.7,7.5,4.6,4.7c3.1-2.2,5.2-2.3,15.6-0.8
		c11,1.7,12.5,2.3,17.8,8.1c3.7,4.2,8.6,7.3,13.9,8.9c7.5,2.4,8.3,3.1,9.6,8.6c2,8-0.3,16.8-6.6,25.3c-2.7,3.7-5.2,7.6-7.2,11.7
		c-1.7,3.4-3.8,6.5-6.3,9.4c-3.6,3.9-3.8,4.9-2.9,14.2c1.8,18.2-6.4,52.2-14.2,59.4c-2.5,2.4-4.7,2.9-8.8,2.2
		c-3.3-0.6-5.8-0.2-6.4,1s-3.8,3.2-7.2,4.8c-4,2.1-7.8,4.6-11.1,7.6c-4.8,4.5-4.9,5-3.3,10.3c1.8,6.2,0.6,13.4-3.4,19.6
		c-1.4,2.3-2.2,4.9-2.3,7.6c0,2.2-1.5,6.2-3.4,8.9c-1.9,2.8-5.5,9.1-8.1,14c-6.2,12.2-10,14.3-19.2,10.7c-7.9-3.1-12.1-3.5-12.1-1.1
		c0,0.9,1.6,2.4,3.5,3.4s4.9,4.9,6.7,8.7c2.6,5.7,2.9,7.7,1.5,10.9c-2.1,5-10.1,9.3-17.6,9.3c-6.6,0-8.3,1.8-6,6.4
		c1.4,2.9,0.5,7.5-2.3,11.1c-0.2,0.3-2.5-0.7-5.1-2.2c-6.2-3.5-8.4-1.3-5.3,5.4c1.3,2.7,3.7,5.4,5.4,6c2.9,1,2.9,1.2,0.6,4.1
		c-1.4,1.7-2.1,4.2-1.6,5.6s-0.7,4.9-3,8.2c-3.7,5.3-3.8,5.7-1.4,9.7c1.4,2.3,3.5,4.6,4.7,5.1c4.5,1.9,5.2,8.3,1.8,15.5
		s-3.9,14.6-1.3,18.1C454.1,950.9,446,957,442.5,954.8L442.5,954.8z M333.6,253.8c4-9,11.3-15.8,17.2-15.8c4.3,0,4.3,0.8,0.4,6.2
		l-3.1,4.3l3.1,2.8c2.5,2.3,3.9,2.5,6.7,1c2-1,3.6-2.8,4.5-4.9c0.7-2.3,1.8-2.9,4.4-2.2c2.4,0.7,3.9,0.1,4.9-1.8
		c3-5.9-4.6-13.4-10.3-10.1c-4,2.4-9.3-2.3-8.2-7.3c0.4-1.8-0.4-5-1.9-7.2c-3-4.4-7.7-4.9-17.9-1.8c-3.7,1.1-7.8,2-9.3,1.9
		s-2.2,0.6-1.8,1.4s0.3,1.5-0.3,1.6s-2.9,1.4-4.9,3.1l-3.7,3.1l4.1,1.7c3.2,1.4,5.1,1.2,8.7-0.9c4.2-2.4,5-2.4,9.6,0
		c2.8,1.5,6.5,2.2,8.5,1.7s3.9-0.2,4.4,0.7s-1.6,2.1-4.8,2.6c-8.6,1.6-13.1,5.5-19.4,17c-5.2,9.6-5.5,10.8-3.5,13.3s2.6,2.5,5.4,0.4
		C328.5,263.2,331.5,258.4,333.6,253.8L333.6,253.8z M360.4,263.8c5.3-2.9,5.8-3.7,3.9-5.7s-3-1.9-9,1c-7.1,3.4-9.3,8.1-3.9,8.1
		C353,267.1,357,265.6,360.4,263.8L360.4,263.8z M386.6,251.6c3.1-2.4,3.2-2.8,1-4.2c-3.2-2-12.7,1.4-12.7,4.5
		S382.2,254.9,386.6,251.6L386.6,251.6z M497.6,950.6c0.3-1.2,0.9-2.4,1.8-3.2c1-1.1,1.2-1.9,0.5-1.9s-2,1.2-3,2.7
		c-1.4,2.1-2.4,2.3-4.6,0.9c-1.6-1-2-1.8-0.9-1.8s1.5-0.8,1-1.7c-1-1.7,1.6-2.2,8.9-1.6c6.5,0.5,7.2,1.5,3.1,5
		C500.7,952,497.6,952.8,497.6,950.6L497.6,950.6z M1731.7,909.9c-4.2-2.9,4.6-9.4,26.4-19.4c7.3-3.6,14.2-7.9,20.6-13
		c8.9-7.4,9.7-7.7,11.4-5c2.7,4.2,1.1,7.3-5.5,10.5c-3.3,1.7-6.3,3.9-8.8,6.7c-1.7,2.1-4.4,3.8-6,3.8s-5.4,2.5-8.5,5.5
		C1751.1,909.3,1737.8,914.1,1731.7,909.9L1731.7,909.9z M1628.3,888.9c-1.5-1.1-1.6-2.2-0.4-4.7c1.1-2.7,1.6-5.5,1.6-8.4
		c0-4.6,0.3-4.9,3.3-3.8c2.8,0.9,5.6,1.4,8.5,1.5c2.8,0.1,5.7,0.3,6.3,0.5c2.4,0.5-4.1,8.7-10,12.4
		C1630.7,890.9,1631,890.8,1628.3,888.9L1628.3,888.9z M1799.1,874.8c-0.5-0.6,0.7-2.4,2.7-4.2c3-2.6,3.4-3.7,2-6.4
		c-1.9-3.9,0.9-8.1,7.5-11.1c5.1-2.3,6.4-7,5-18.3c-0.9-7.8-0.8-8.3,1.5-6.2c1.8,1.6,2.2,3.7,1.6,7.4c-0.7,4.1-0.1,6.2,3,10.3
		c3.4,4.4,4.4,4.9,7,3.3s2.9-1.4,2.1,1c-0.4,1.1-0.8,2.2-1,3.4c0,0.3-2.2,1.8-4.8,3.3c-4,2.5-7.9,5.4-11.4,8.6
		c-6,5.4-12.1,9.7-13.7,9.7C1799.9,875.5,1799.4,875.2,1799.1,874.8L1799.1,874.8z M1642.8,853.9c-3.1-3.6-3.7-3.8-6.7-1.6
		c-3.8,2.7-11,1.1-16.7-3.7c-3.1-2.6-3.3-3.4-1.7-6.7c1.3-2.3,1.4-5.2,0.2-7.6c-0.9-2.3-1.5-4.6-1.6-7.1c0-3.9-2.3-4.1-4.3-0.3
		c-0.8,1.6-1.9,2.4-2.4,1.8s1.2-3.7,3.8-7c6.4-8,3.9-10.2-4.6-4c-3.7,2.7-6.9,5.6-7.2,6.5s-2-1.9-3.9-6.2c-2-4.7-5.5-9.3-8.6-11.6
		c-4.7-3.4-6.3-3.7-15.3-2.7c-13.2,1.4-26,5-34.3,9.6c-3.8,2.1-11.2,4.2-16.9,4.9c-6.8,0.9-13.4,2.7-19.8,5.1
		c-8.1,3.3-10.4,3.7-14.5,2.2c-5.5-2-7.8-6.1-4.2-7.6c1.3-0.5,3.6-4.3,5.2-8.3c2.5-6.4,2.6-8.4,1.2-16.7c-1.2-6.8-1.3-13.3-0.1-23.9
		c0.9-8,1.2-16,0.7-17.9s0.3-6.6,1.6-10.4c2.3-6.7,2.9-7.2,18.8-14.5c9-4.2,18.2-7.6,20.4-7.6c6.1,0,13.7-6.4,17.8-15
		c2.6-5.3,4.4-7.4,5.9-6.7c4.3,1.8,5.2,1.5,4.8-2c-0.2-2.3,0.7-3.9,2.4-4.5c1.5-0.5,4.3-3.5,6.3-6.5c2.3-3.5,5.5-6.3,9.2-8.1
		c5.4-2.4,5.9-2.3,8.9,0.6c5.4,5.4,9.3,7,11.1,4.5c0.9-1.2,1.2-2.6,0.7-3.2c-1.7-1.8,6-12.5,9.8-13.5c3.2-1.1,6.3-2.4,9.3-4.1
		c4.8-2.6,6.5-2.8,11.8-1.2c11.6,3.4,11.9,4,7.6,11.1c-5.5,9.2-4.1,12.7,9.5,23.2c6.3,4.8,12.2,8.5,13.1,8.1s4-4,6.8-8.2
		c3.5-4.8,5.5-10.5,5.8-16.5c0.8-9.5,5-22.7,7.1-22.7c0.7,0,2.3,3.9,3.6,8.7s3.9,10.3,5.9,12.4c4.6,4.7,7.3,18,5.2,25.9
		c-1.4,5.2-1.1,6,3.6,11.3c2.8,3.2,7.2,10.8,9.8,17c2.9,6.8,6.4,13.4,10.4,19.6l5.7,8.3l-1.6,12.8c-1.2,9.3-3,15.4-6.6,22.5
		c-5.6,10.8-13.9,21.1-18.3,22.6c-1.6,0.5-5.2,4.6-8.1,9s-5.9,8-6.7,8s-4.2,3.8-7.5,8.4c-5.6,7.7-6.6,8.4-12.4,8.5
		c-4.3,0-8.4,1.6-11.5,4.5l-5.2,4.3L1642.8,853.9L1642.8,853.9z M922.2,819.8c-3.1-3.4-3.7-5.2-3-9.9c0.7-4.4,0-7.1-2.8-11.6
		c-2-3.2-3.6-6.6-3.6-7.6s-2.6-5.6-5.8-10.3c-4.9-7.3-6-10.1-6.8-19.3c-1.4-16.2-6.2-33.7-12.5-46.4c-3.1-6.2-6.1-14.3-6.7-18
		c-1.2-7.8,1.7-19.4,8.3-33.4l4.4-9.3l-2.5-8.1c-1.4-4.5-2.1-9.9-1.5-12.2c0.6-2.7,0-5.9-1.9-9.2c-2.2-4.5-3.9-9.2-5.2-14
		c-1.4-6.1-4.5-11.6-9-16c-9.4-10.1-10.6-14-7.7-25c5.9-22.3-0.5-35.3-16.1-32.7c-6.1,1-6.3,0.9-7.2-3.8c-0.7-3.6-2.5-5.7-6.9-8.2
		c-5.8-3.3-8.3-3.3-15.5-0.1c-1.6,0.7-8.3,3.2-14.8,5.6c-9.8,3.5-12.7,4-17,2.6c-4-1.3-7.4-1-15.7,1.5c-8.5,2.6-11.6,2.8-16.2,1.5
		c-9.6-2.9-26.1-19.2-28.5-28.1c-1.8-6.9-13.1-23-17-24.1c-2.5-0.7-2.8-1.3-1.3-2.4s1.2-1.6-1.1-2.3c-3.7-1.1-4.1-4.4-0.5-4.5
		c2.2,0,2.3-0.3,0.4-1.6c-1.4-1-1.5-1.6-0.4-1.6s0.7-2-1.3-5.8c-2.8-5.3-2.9-6-0.7-8.6c6.6-8,8.1-25.2,3-36.1
		c-2.4-5.2-0.9-12.3,4.3-19.8c3.1-4.9,5.9-9.9,8.4-15.1c4.7-9.7,15.1-23.1,17.9-23.1c3.1,0,13.2-11.9,13.2-15.5
		c0-8.3,4.5-16.6,11.9-21.8c4-2.8,8.6-7.6,10.3-10.6c3.5-6.2,4-6.4,8.1-3.3c1.6,1.2,5.6,2.7,8.9,3.3c5,0.9,7.4,0.3,14.8-4.1
		c12.8-7.5,20.6-9.3,35.2-8.4c9.6,0.7,14,0.2,18.6-1.8c6.9-3,12.8-1.2,11.2,3.4c-0.5,1.5-0.2,3.2,0.7,4.5c1.1,1.4,1,3.4,0,6.5
		c-1.4,3.9-1.1,5.1,2.3,8.9c2.1,2.4,5.9,4.9,8.5,5.4c11.9,2.6,15.3,4.3,17.7,8.8c1.6,3.2,4.6,5.3,8,5.8c3.4,0.8,6.7,1.9,9.8,3.5
		c4,2.3,4.5,2.2,7.8-1.3c2.2-2.3,3.3-4.7,2.7-6.5c-0.4-2.1-0.1-4.3,0.8-6.2c2.3-4.7,8.8-4.2,18.9,1.3c11,6.1,32,10.4,39.4,8.1
		c3.3-1.1,6.8-1.1,10.1,0c10.2,3.4,15.4,0.8,16.8-8.7c0.5-3.1,1.3-5.7,1.8-5.7c1,0,1.4-4.7,1.6-15c0-3.3,0.8-6.1,1.6-6.1
		c1,0,1-1.2-0.1-3.4c-1.8-3.7-5.5-3.6-14.3,0.3c-4.2,1.9-5.3,1.8-9.1-0.6c-4.9-3.1-9.8-3.6-11.3-1.1c-1.1,1.9-8.6,0.6-12.7-2.2
		c-2.9-2-5.7-8-5.7-12.4c0-1.7-1.5-4.2-3.3-5.6c-2.8-2.2-3-2.8-1.1-4.1c1.7-0.9,3.7-1.2,5.6-0.7c2.3,0.6,4.5-0.4,7.3-3.4
		c2.3-2.7,5.6-4.3,9.2-4.6c3.3-0.3,6.6-1.4,9.4-3.3c4.9-3.5,16-2.5,24.6,2.2c11.6,6.4,21.9,6,26-1c2.2-3.6,2.2-4.4,0.1-7.8
		c-1.2-2.1-7.2-6.9-13.3-10.7l-11-6.9l2.1-4.4c1.1-2.4,1.7-4.8,1.2-5.3c-0.5-0.5-0.3-1.9,0.4-3c0.7-1.3,1.2-2.7,1.5-4.2
		c0.3-2.5-2-1.8-13.8,3.9c-6.8,3.3-7.8,4.3-6.3,6.3c1.3,1.4,3,2.3,4.9,2.5c2.4,0,1.8,0.8-2.5,3.3c-5.3,3.1-5.9,3.1-9.3,0.6
		c-2.9-2.1-3.3-3.1-1.9-4.9s1.2-2.5-1-3.4c-1.7-0.8-3.2-2-4.3-3.5c-4.2-6.2-17.7,10.1-21.6,26.1c-1.8,7.5-1.8,7.9,1.7,10.8l3.6,3
		l-6.6,1.5c-3.6,0.8-8.5,0.9-10.8,0.2c-4.3-1.3-9.8,0.6-9.8,3.5c0,0.8-1,1.1-2.2,0.6c-1.5-0.4-3.2-0.1-4.3,1c-1.8,1.6-1.6,3,1.4,9.1
		c3.2,6.6,3.3,7.5,1.3,12c-2.5,5.5-4.9,5.1-8.4-1.5c-2.5-4.6-2.5-4.7,0.8-5.2c4.1-0.6,4.4-3.5,0.4-4.2c-9.2-1.6-14-6.9-14-15.2
		c0-6.5-5.5-13.6-12.1-15.8c-3.5-1.1-7.2-3.5-8.3-5.3s-4.5-4.3-7.4-5.7s-6.2-3.8-7.3-5.5c-1.5-2.4-2.6-2.7-4.8-1.4
		c-1.6,0.9-2.9,2.7-2.9,4c0,4.2,18.8,23.2,28,28.3c9.8,5.4,11.3,7.3,4.5,5.7c-6-1.5-7.7,0-5.6,5c1.5,3.5,1.2,4.5-1.7,7.6l-3.4,3.6
		l0.8-4.8c1.2-7.7-8-18.6-15.6-18.6c-2.8,0-13.6-11.4-16.4-17.4c-3-6.4-6.4-7.6-11.1-4.1c-7.2,5.3-12.5,7.1-18.1,6.1
		c-7.5-1.4-12.2,1.5-11,6.6c0.6,2.7,0.3,3.9-1.1,3.9c-1.1,0-3.9,1.8-6.3,4s-4.8,4-5.4,4c-1.8,0-7,10.2-7,13.9
		c0,3.5-5.8,10.3-11.4,13.5c-1.8,1-5.9,1.8-9.2,1.8c-4.5,0-6.3,0.8-7.6,3.4c-1.6,3.3-1.7,3.3-5.5-0.9c-3.6-3.9-5.6-4.9-12.8-6.1
		c-3.8-0.6-4.4-10-1.6-23.3c1.2-5.7,1.8-12.1,1.3-14.2c-1.4-6.1,3-9.7,10.3-8.5c16.9,2.9,26.8,3,29.2,0.5c3.2-3.5,4.6-15,2.7-21.5
		c-1.3-4.2-3-5.9-8.2-8.1c-7.7-3.2-7.8-6.3-0.3-6.4c3.3-0.2,6.4-1.2,9.2-2.9c2.2-1.6,4.6-2.4,5.3-1.9c2.1,1.4,10-3.6,12.6-8
		c1.3-2.1,3.8-4.3,5.5-4.8s6.6-4.3,10.6-8.4c5.8-5.9,8.8-7.7,13.7-8.4c6.1-0.8,12.3-6.3,9.4-8.4c-1.8-1.3-3.3-9.1-2.3-12
		c0.5-1.4,2.6-3.7,4.7-5.2l3.8-2.7l-1,6.7c-0.8,5.8-0.6,6.6,1.6,6.2c2.1-0.5,4.1-1.4,6-2.5c2.8-1.7,3.5-1.6,4.2,0.5
		c1.3,3.6-2.3,7.9-4.7,5.7c-1.3-1.2-2.2-1.2-2.9,0.1s-1.4,1.3-2.3-0.3c-0.7-1.2-1.5-1.8-2-1.3s0.8,2.9,2.6,5.5
		c3.1,4.3,3.7,4.5,8.2,2.8c3.8-1.5,5.7-1.4,8.9,0.5c3.7,2.1,4.9,2,12-1c6.2-2.6,8.6-2.9,11.4-1.5c2.1,1.3,4.7,1.2,6.7-0.1
		c6.7-3.8,8.5-6.6,7.7-11.8c-1.2-7.7,1-10.3,6.9-7.8c4,1.7,5.2,1.6,7-0.4s1.8-2.9-1.4-6.6s-3.3-4.4-1.4-5.8c1.2-0.9,5.7-1.2,10-0.7
		c7.8,0.9,17.6-2.4,15.9-5.5c-1.5-2.6-10.5-3.4-18.1-1.5c-6.8,1.7-8.5,1.5-13.7-1c-8-4-9-8.6-3.5-17.1c7.1-10.9,8.4-14.3,6.4-17
		c-3-4-6-2.7-12.8,5.6c-3.6,4.4-8.6,8.9-11,9.9c-2.8,1.5-5.1,3.9-6.6,6.7c-2,4.3-2,5.1,0,8.6c1.2,2.1,3.1,3.8,5.3,4.9
		c4.5,1.6,3.6,4.5-2.8,9.4c-2,1.5-4.7,5.7-5.9,9.4c-1.3,4.2-4,7.8-7.7,10.1c-5.3,3.3-5.5,3.3-8.4,0.5c-1.9-2.1-3.2-4.6-3.9-7.4
		c-0.5-2.4-2.7-6.8-4.9-9.7l-4-5.3l-5.1,3.4c-2.8,1.9-6.5,3.4-8.1,3.4c-4.7,0-10.1-5.6-10.5-10.7c-0.2-2.5-0.6-5-1.3-7.4
		c-1.3-3.6,5.3-10.4,12.2-12.5s20.9-12.8,23.3-17.9c1.1-2.2,4.7-6.8,8-10s6.1-6.7,6.1-7.6s3.2-2.8,7-4.3s10.3-4.2,14.4-6.1
		c5-2.3,11.2-3.4,19.2-3.7c14-0.4,23.1,1.6,30.6,6.8c3.8,2.6,6.8,3.5,9.6,2.8c5.1-1.1,32.3,8.1,33.4,11.4s-6.7,6.3-13.4,5.3
		c-3.1-0.5-9.4-1.8-14.1-2.9c-6.3-1.5-9-1.5-10.2-0.2s-0.6,2.3,2.4,3.8c2.6,1.6,4.8,3.8,6.2,6.5c3,6.3,12.6,11.5,17.5,9.4
		c4.8-2,4.7-2.6-0.3-5.6c-4.6-2.8-2.5-3.4,3.3-0.9c4.6,1.9,9.9-0.5,8.7-4c-0.6-1.6,1-2.8,5.6-4.1c9.7-2.7,10.5-3.1,9.6-5.3
		c-3-8.2-3.1-8,1.3-7.4c2.4,0.3,4.1,1.4,3.9,2.5s1,2.8,2.8,3.8c2.6,1.5,4.6,1,11.6-3.1c10.3-5.9,18.4-7.9,21.4-5.1
		c1.7,1.5,4.4,1.5,12.5,0.1c5.7-1.1,11-1.5,11.8-0.9c0.8,0.5,1.8,0.2,2.3-0.6c0-0.1,0.1-0.1,0.1-0.2c1.2-2.1-2.1-6.7-3.8-5.6
		c-2.1,1.4-9.1-1.1-7.6-2.8s42.7,8.8,45.1,11.5c1.7,1.8,6.9-0.6,6.9-3.2c0-0.9-2.9-3.1-6.5-5.1c-11.1-5.9-11.8-15.4-1.4-18.3
		c6.1-1.7,8.7,0.3,17.1,12.5c10.9,15.9,10.6,15.1,7.1,20.6c-2.6,4-2.8,5-1,5.8c3.5,1.4,10.9-3.6,11.9-8.2c1.2-5.3-1.1-9.9-6.5-13
		c-4.3-2.4-7.4-6.9-7.4-10.6c0-1.3,1.6-1.6,4.8-1c4.8,1,8.8-0.9,19.6-9.4c2.5-1.9,6.7-3.2,10.9-3.3c8.6-0.2,11.4-1.8,8.9-5
		c-1-1.3-1.4-2.7-1.1-3.1c1.9-2.1,26.2-5.8,31.8-4.9c5.4,0.9,7.1,0.4,11.5-3.3c2.8-2.4,5.2-5,5.2-5.8c0-2-12.9-1.8-14,0.2
		c-1.6,2.8-3.6,1.8-3-1.4c0.5-2.7-0.8-3.2-11.5-4.1c-29.4-2.5-31.8-3.1-28.3-7c3.1-3.4,10.7-3.3,17.1,0.2c3,1.5,6.3,2.4,9.6,2.6
		c2.7,0,5.3,0.7,5.8,1.6s3.1,1.6,5.8,1.6c7.4,0,21.6,3.5,20.7,5.1c-0.4,0.8,1,1.4,3.1,1.4c3,0.3,6,1.2,8.6,2.8
		c3.5,2.1,8.4,2.8,18.8,2.8c11.2,0.1,14.9,0.7,18.1,3.1c2.2,1.7,4.1,3.5,4,4s-3.4,3.1-7.6,5.6c-10,6.1-7.9,8.7,4.2,5.3
		c7.9-2.2,9.7-2.2,16.2-0.1c5.3,1.7,8.7,2,12.3,0.8s7.3-0.9,13.6,0.9c6.6,1.9,10,2.1,14.2,0.8c9.5-2.9,21.2-2.1,28,1.9l13.8,8.2
		c7.5,4.5,7.8,4.5,13,2c4.3-2.1,6.8-2.3,13.2-1s8.7,1.2,12.3-0.9s4.1-3,2.7-4.7c-2.6-3.4,6.6-4.7,17.9-2.5c5.2,1,11.8,2,14.6,2.3
		s8.4,2,12.3,3.9c6,3,10.6,3.6,28.2,4.2c16.7,0.5,22,1.2,26.1,3.6s8.8,3,24.3,3.2c14.3,0.1,20.7,0.9,24.9,2.9c6.8,3.2,9.6,2,5.8-2.5
		c-2.7-3.3-2.7-3.3,7.7-2.2c17.3,1.9,38,6,45.1,9c5,1.9,10.2,3.2,15.5,4c5.5,0.8,10.8,2.5,15.8,5c5.8,3.2,7.7,3.6,11.4,2.1
		c5.1-1.9,8.4-0.5,16.1,6.8l4.8,4.6l-3.6,1c-3.6,1-13.3-1.6-16.7-4.5c-1-0.9-2.4-1.2-3.1-0.7s-4.2-0.2-7.7-1.6
		c-8.3-3.1-11.9-2-8.2,2.6c2.6,3.1,2.5,3.2-2.4,2.8c-9.2-0.7-6.7,2.3,6.8,8c7.3,3.1,13.6,6,14,6.4c1.4,1.5-3.2,3.3-6.5,2.6
		c-3.7-0.8-12.7,3.5-12.7,6c0,0.8-1.4,3-3.2,4.7c-2.9,3-3.5,3-7.4,0.8c-3.6-2.1-4.8-2.1-8.3-0.1c-2.7,1.4-5.5,2.6-8.5,3.4
		c-2.2,0.5-4.4,1.5-6.3,2.8c-3,2.7,2.3,10.6,9.7,14.5c4,2.1,6.9,5,7.8,7.6c1,2.9,2.2,5.8,3.6,8.5c2,3.8,2,4.4-0.2,5.3
		c-1.6,0.6-2,2-1.3,3.8c0.7,2.2,1.2,4.5,1.4,6.9c0.2,2.3,0.7,4.6,1.4,6.7c0.8,1.9,0.1,3-2.2,3.8c-2.6,0.9-4.3-0.2-8.6-5.3
		c-3.3-3.9-7-7.6-10.9-10.9c-3.1-2.4-8.5-8.8-12.2-14.1c-6.4-9.4-6.6-9.8-4.4-14.3c1.2-2.6,2-5.5,2.3-8.4c0.2-2.7,0.9-5.3,2.1-7.7
		c2.1-4.2,1.3-7.6-3.3-13.3c-3-3.8-8.3-0.9-7,3.7c1.2,4.3-2.6,5.7-6.9,2.5c-3-1.8-6.3-3-9.7-3.6c-5.9-1-6.3-0.8-7.9,3.6
		c-0.9,2.9-1.2,6-0.8,9c0.7,3.7,0.2,4.5-3.3,5.3c-2.4,0.6-6.4-0.1-9.8-1.6c-3.6-1.7-7.1-2.2-9.5-1.4c-2.1,0.7-9.3,1.3-15.9,1.3
		c-10.5,0.1-12.5,0.6-15.7,3.9c-2,2.1-4.4,7.2-5.4,11.3c-0.8,3.9-2.1,7.6-3.8,11.2c-2,3.4-1.8,3.8,4,7c6.3,3.5,13.1,4.4,18.3,2.5
		c4-1.5,16.2,8.9,20,17.1c1.6,3.4,4.2,6.9,5.7,7.8c6,3.5,7.3,26.8,2.2,41.9c-3.5,10.5-7.4,14-13.2,11.6c-1.5-0.7-3-1.2-4.5-1.7
		c-0.3,0-1.9,3-3.7,6.6c-2.3,4.8-2.7,7.2-1.6,8.7c2.2,2.8,0.6,6.5-3.8,8.7c-2,1-3.6,2.5-3.6,3.4s4.6,5,10.3,9.3
		c7.2,5.4,11,9.6,12.8,13.9c1.4,3.4,2.2,6.4,1.9,6.7s-3.3,2.1-6.7,4l-6.1,3.4l-3.7-9.2c-4.1-10.4-7.6-14.5-13.9-16.3
		c-3.1-0.9-4.2-2.2-4.2-5.1c0-2.6-1.5-4.8-4.8-6.9c-4.8-3-4.8-3-9.9,0.4s-5.1,3.4-6.7,0.3c-0.9-1.8-1.4-3.7-1.6-5.7
		c-0.2-1.7-1.3-3.2-2.8-4.1c-2.3-1.3-3.7-0.5-7.8,4.4c-2.8,3.3-6.4,6.8-7.9,7.8c-2.4,1.5-2.6,2.2-0.9,4.4c1.1,1.4,4.8,4.4,8.3,6.5
		c5.6,3.4,6.6,3.6,8.5,1.5s3.2-2,8.6-0.4l6.5,1.9l-3.6,2.6c-6.7,4.9-8.8,7.5-9.8,11.9c-0.8,3.6-0.3,4.7,2.7,6.2c2,1,5,5,6.7,8.8
		s5.1,8.3,7.6,9.9c5.4,3.5,7,7.2,3.9,9.1c-2.9,1.8-1.5,4.5,2.3,4.5c4.6,0,4.6,3,0.2,20.4c-5.4,21-10.3,28-23,33.1
		c-5,2-11.1,3.8-13.6,3.9c-5.7,0.3-10.1,3-13.9,8.3l-3,4.2l-1.4-4.1c-1.8-5.3-6.1-6.7-12.2-3.9c-5.6,2.6-9.3,6.7-10.8,12
		c-1.3,4.8,3.4,13.2,11.2,19.9c6.4,5.5,13.6,19.5,15.3,29.6c1.5,8.8-1.1,14.6-8.1,18c-3.2,1.6-6.1,4.1-6.6,5.7
		c-1.1,3.8-7.7,8.5-8.9,6.4c-0.5-1.5-0.5-3.1,0-4.6c0.5-1.8,0.5-3.8-0.1-5.6c-0.7-2.1-1.5-2.3-3.9-0.9s-3.4,1.1-5.3-2
		c-4.8-7.7-18.8-20-22.7-20c-1.4,0-1.9,1.8-1.7,5.7c0.1,4.5-0.4,9.1-1.3,13.5c-1.5,7-1.3,8.3,1.4,12.4c1.8,2.7,3.1,5.6,4,8.6
		c0.5,2.3,4.8,7.5,9.7,11.8c8.1,7.2,9,8.6,12.4,20.5c2,7,3.7,13.5,3.7,14.3c0,2.7-3.1,1.6-9.5-3.4c-6.7-5.2-10.9-13.5-14.5-28.2
		c-1.5-6.4-3.2-9.1-8-13c-5.9-4.7-6-5.2-5.6-13c0.3-4.5,0.9-10.8,1.5-14c0.8-4.6,0.1-7.9-2.8-14.6c-2.3-5.3-4.1-10.7-5.5-16.2
		c-2.1-9.3-5-10.9-10.2-5.4c-2.1,2.3-4.3,4.1-4.8,4.1c-2.3,0-5.6-5.5-4.8-8.1c1.4-4.9-7.3-21.8-12.3-24.1c-2.8-1.3-5.3-4.3-7-8.4
		c-3-7.2-6.3-9.9-9.6-7.9c-1.2,0.7-6,2.2-10.7,3.2c-8.6,1.9-11.6,4.8-10.4,9.7c0.4,1.8-1.1,3.5-4.7,5.4c-2.9,1.5-6.1,4.6-7,6.8
		s-3,4.5-4.5,5s-4,3-5.3,5.5s-5.5,7-9.1,10.1c-5,4.2-6.6,6.5-6.3,9.5c1.4,17.3-0.8,31.7-6.2,40.3c-5.3,8.4-5.7,8.6-10.1,6.4
		c-2.5-1.2-4-3.6-4.6-7.3c-0.5-3-3.5-11.5-6.6-18.8c-18.9-44.5-21.7-52.9-20.1-61c1.1-5.4-1.5-13.6-4-12.7c-1.1,0.6-1.9,1.7-1.9,3
		c-0.1,7.4-7.7,8.5-13.6,2l-3.9-4.3l3.4-1.4c3.8-1.5,3.4-5.7-0.4-4.9c-1.4,0.3-4.5-1.4-7-3.6s-5-4.1-5.8-4.1s-1.7-1.5-2.2-3.3
		c-1.4-4.7-9.2-8.8-13.1-6.9c-3.5,1.8-35.6,1.4-41-0.5c-1.9-0.7-5.5-3.7-8-6.8c-4.4-5.5-4.5-5.5-11.1-3.6c-6.3,1.9-7.2,1.7-15.6-3
		c-7.3-4-9.5-6.2-11.7-11.7c-2.9-7-9.3-12-13.1-10.4c-1.2,0.5-2.6,3.1-3.2,5.7c-0.8,3.7,0,6.2,3.6,11.6c2.6,4,4.7,8.4,6.1,13
		c1.8,7.3,5.3,9.5,8.3,5.1c1.8-2.7,2.3-2.8,3.4-0.7c0.7,1.2,1.1,2.6,0.9,4c-0.8,2.8,7.7,7.4,11.7,6.3c2-0.5,6.3-4.3,9.6-8.3
		c5.1-6.4,6.9-6.8,6-1.5c-0.6,3.6,2,7.8,6.3,10.2c6.6,3.7,15.8,12,15.8,14.3c0,1-1.7,3.6-3.8,5.8c-2.7,3.1-5,6.5-6.8,10.1
		c-3.9,8.3-15.2,20.5-19,20.5c-4.4,0-11,4.1-13.6,8.5c-1.9,2.7-4.4,4.9-7.2,6.5c-14,7.7-31,15.5-35.7,16.5c-5.1,1-5.5,0.8-8.2-5
		c-1.9-4.8-3.3-9.9-3.9-15c-0.8-6.4-2.3-10.4-5.3-14.2c-2.3-2.9-4.3-6-4.3-6.9s-2.7-4.6-5.9-8.3c-4-4.5-6.9-9.9-8.3-15.8
		c-1.3-5-4-11.3-6-14c-13.6-18.5-17.6-25-19.6-31.8c-2.7-9-4.9-10.5-6-3.8l-0.7,4.7l-5-6.9c-7.7-10.6-8.7-5.8-1.4,7.2
		c3.4,6.2,8.9,17,12.1,24.1s7.4,15.2,9.3,18c2,3,3.2,6.6,3.4,10.2c0,6.1,1.7,9.9,8.2,18.8c2.6,3.6,5.2,8.8,5.8,11.5
		c0.7,3.6,3.6,7.3,9.7,12.7c9.3,8.2,15.4,16.7,16.9,23.8c0.8,3,2.7,5.5,5.4,7c4.1,2.3,5.6,2.3,18.6-0.8c7.8-1.8,16-4.4,18.3-5.7
		l4.2-2.4l1,6.4c0.9,5.8-0.1,8.6-10.6,30.7c-11.3,23.8-11.8,24.5-23.1,34.3c-6.3,5.5-13,12.2-14.7,14.9s-7.4,10.1-12.6,16.3
		c-15,18.3-17,34.3-7.1,55.8c2.5,5.5,3.5,9.6,2.9,12.2c-0.5,2.2-0.2,7.7,0.7,12.2c1.4,7.1,1.2,9-1.2,14.3c-3.5,7.5-6.3,10.2-16,15.5
		c-4.3,2.3-7.8,5-7.8,5.8s-3,5.2-6.7,9.7c-3.6,4.5-6.6,8.9-6.6,9.8s1.4,4.6,3,8.2c5,10.8,1.7,18.6-10.4,24.1
		c-5.1,2.3-6.7,7-5.5,15.5c0.7,4.4,0.2,5.9-2.1,7.3c-1.6,0.9-4.4,4.4-6.4,7.7c-6.1,10.4-23.5,28.8-31.4,33.2
		c-6.6,3.7-8.3,4-13.1,2.5c-4.3-1.3-7.7-1.1-14.9,0.9c-11.6,3.2-10.4,3.3-14.9-1.6L922.2,819.8z M1116.9,303.5
		c3.8-2.2,4.4-3.4,4.4-9.5c0-4.4-0.9-7.8-2.3-9.1c-1.9-2.1-3.4-4.4-4.6-6.9c-2.1-4.4-2.1-4.7,0.1-3.8c2.8,1.2,6.8-0.2,6.8-2.5
		c0-0.9-1.4-3.7-3.1-6.3c-2.5-3.9-3.5-4.4-5.9-3c-1.9,1.1-2.9,1.1-2.9,0c0-0.9-2.6-3.1-5.9-4.9c-7.1-4-9.7-8.4-7.4-13
		c1.7-3.5,7.7-5.9,10.3-4.1c3.5,2.3,4.5-1.1,1.6-5.5c-6.9-10.7-16.6-10-28.6,2.1c-7.7,7.8-8.4,9.8-4,12.4c1.6,1,3,2.8,3,4.1
		s2.6,5.5,5.8,9.3c7.4,8.8,8.8,12.8,7.8,23.2l-0.7,8.4l10.2,5.7c5.6,3.1,10.3,5.7,10.6,5.8C1113.8,305.2,1115.4,304.4,1116.9,303.5
		L1116.9,303.5z M1076.1,755.6c-4.2-2.6-4.8-4-5.8-13.5c-0.9-7.6-0.5-9.3,3.7-16.7s4.5-9,3.6-17.2c-1.3-11.8,1-18,7.2-19.6
		c5.9-1.4,18.7-13.8,21.8-21.1l2.3-5.5l1.6,3.9c4.1,9.8,3.7,14.2-3.4,35.8c-3.8,11.6-7.9,25.4-9.1,30.7c-3.8,17.1-6,21.2-12.2,23.3
		C1079.2,757.9,1079.8,757.9,1076.1,755.6z M1804.1,727.5c-4.7-5.7-7.5-10.5-7.5-13c0-5.4,0.8-5,5.1,3c2.3,4.2,5,8.1,8.2,11.6
		c2.5,2.6,4.5,5.3,4.5,6C1814.3,738.2,1811.2,735.8,1804.1,727.5L1804.1,727.5z M1144.9,725.2c0-0.8,0.7-1.5,1.5-1.5
		s1.5,0.7,1.5,1.5l0,0c0,0.8-0.7,1.5-1.5,1.5S1144.9,726,1144.9,725.2z M1155.2,719.6c0-0.4,0.7-1.2,1.5-1.7s1.5-0.2,1.5,0.7
		c0.1,0.9-0.6,1.6-1.5,1.7C1155.8,720.3,1155.2,720,1155.2,719.6L1155.2,719.6z M1825.1,690.1c-3-7.2-2-9.9,1.2-3
		c3.3,7.2,3.3,7.4,1.8,7.4C1827.3,694.4,1826,692.5,1825.1,690.1L1825.1,690.1z M1830.7,688.9c-0.1-1.7,0.3-2.7,0.8-2.1
		c0.5,1,0.6,2.1,0.1,3.1C1831.1,691.2,1830.8,690.8,1830.7,688.9L1830.7,688.9z M1077.7,665.3c-0.5-0.9-0.2-1.6,0.7-1.6
		c0.9,0,1.6,0.7,1.6,1.6c0,0.9-0.3,1.6-0.7,1.6s-1.2-0.7-1.7-1.6H1077.7z M1726.4,650.1c-9.3-3.2-13.6-6.2-17.3-12.2
		c-4.2-6.8-11.9-12-15.8-10.7c-1.6,0.5-4.3,3.5-5.9,6.7c-2.9,5.3-3.4,5.6-8.6,4.6c-3.5-0.9-6.8-2.6-9.5-5.1c-2.8-2.8-4.8-3.7-7-2.9
		c-1.8,0.6-3.7,0.4-5.4-0.4c-2-1.3-1.8-1.8,1.4-4.2c3.8-2.7,3.8-2.7,1.2-8.5c-2-4.7-4.8-7.1-14-12.1c-6.3-3.5-13.4-6.3-15.8-6.3
		c-5.5,0-7.8-5.5-3.6-8.9c2.5-2,2.1-2.5-4.3-5.9c-6.8-3.6-6.9-3.8-3.7-5.8c2-1.2,4.3-1.9,6.6-2.1c3.5-0.1,7.8,5.4,7.8,9.8
		c0,1.5,1.4,4.7,3.2,7.1c3.2,4.4,3.2,4.4,5.5,1.2c1.3-1.8,5.4-5.1,9.2-7.5l6.8-4.3l9.4,4.7c5.2,2.6,12.6,5.9,16.4,7.4s11.4,6,17,10
		c10.5,7.6,15.1,14,12.5,17.4c-2.1,2.8,6.3,15.7,15,22.9C1737.1,653,1737,653.8,1726.4,650.1L1726.4,650.1z M1790.8,650
		c-1.2-1.5-1.3-2.5-0.3-2.5c1.8,0,3.9,3.1,2.8,4.2C1792.9,652.1,1791.8,651.3,1790.8,650L1790.8,650z M1542.5,643.4
		c-2.1-1.3-2.8-2.3-1.5-2.3c2.6,0,6.9,2.7,5.9,3.7c-0.5,0.4-2.5-0.2-4.5-1.5L1542.5,643.4z M1567.5,641.2c4.2-6.4,10.8-9.2,16.8-7.1
		c4.4,1.5,4.5,1.7,1,1.8c-2.1,0.1-6.9,2.3-10.8,5C1565.7,647.1,1563.6,647.2,1567.5,641.2L1567.5,641.2z M1781.9,643.5
		c-2-2.6-1.5-3,2.1-1.5c1.3,0.5,2.3,1.6,2.3,2.4c-0.1,2.2-2.5,1.7-4.6-1L1781.9,643.5z M1788.8,642c-0.6-1.8-0.9-3.7-0.9-5.6
		c0.1-1.8,0.6-1.4,1.5,1.2c0.8,2.2,1.2,4.7,0.9,5.6S1789.3,643.6,1788.8,642z M1525.1,636.7c-0.9-0.3-1.4-1.3-1.1-2.2
		c0,0,0-0.1,0.1-0.1c1.1-2,10.6-1.9,11.7,0.1c0.5,0.9,0,1.6-1,1.6c-1.6,0.1-3.3,0.3-4.9,0.7C1528.4,637.3,1526.7,637.3,1525.1,636.7
		L1525.1,636.7z M1547.1,635.5c-2.7-3.5,0.4-4.6,7.4-2.6s7,2.4-0.3,3.8c-3.9,0.8-6,0.4-7.2-1.3L1547.1,635.5z M1768.9,634.5
		c-1-1.8-1.2-3.2-0.4-3.2s2.2,1.5,3,3.2s1,3.2,0.4,3.2s-2.1-1.4-3.1-3.2L1768.9,634.5z M1778.2,632.9c-3.9-4.8-1.8-5.5,2.2-0.8
		c1.9,2.2,2.8,4,2,4S1779.7,634.7,1778.2,632.9L1778.2,632.9z M1501.1,632.6c-5.6-0.9-11.1-2.2-16.6-4c-3.8-1.4-8.3-2-10-1.4
		c-3.4,1.2-17.8-3.5-17.8-5.7c0-5.2,13.3-5.6,20.3-0.6c2.6,1.8,4.7,2,10.3,0.6c6.2-1.5,7.4-1.3,11.1,1.6c2.3,1.8,4.8,3.3,5.6,3.3
		c2.9,0,11.8,5.4,11,6.7c-0.6,0.8-1.5,1.2-2.5,1.1C1511.4,634.2,1506.4,633.4,1501.1,632.6L1501.1,632.6z M1766.2,624.8
		c-1.5-1.8-2-3.2-1.2-3.2s2.7,1.5,4.2,3.2s2,3.2,1.2,3.2S1767.7,626.6,1766.2,624.8z M1756.9,622.8c-1.2-2.1-2.1-4.4-2.5-6.9
		c-0.8-4.3-0.8-4.5,0.8-1.6c1.2,2.1,2.5,4,3.9,5.9c1.2,1.6,1.5,3.1,0.7,3.6S1757.7,623.9,1756.9,622.8L1756.9,622.8z M1725.6,617.7
		l-3.7-2.2l5.7-1.2c3.1-0.6,7.9-3.3,10.7-6c3-2.9,5-3.9,5-2.6c0,3.3-1.9,5.8-7.4,10.3C1730.2,620.6,1730.4,620.6,1725.6,617.7
		L1725.6,617.7z M1448.4,611.3c-5.4-3.4-15.2-16.5-18.4-24.6c-2.4-5.6-5.3-11-8.8-16.1c-2.9-4.2-5.6-8.5-7.9-13
		c-1.3-2.7-5-7.8-8.4-11.3c-7.1-7.5-11.5-15.4-8.5-15.3c3.9,0.1,13.9,6.2,18.1,11c11.8,13.5,14.2,15.9,19.8,19.7
		c5.4,3.6,7.9,7.4,8.2,12.1c0,0.9,1.6,3.4,3.4,5.7l7.6,9.3c2.4,2.9,4.8,7.4,5.3,10c1.7,8.6-4.6,16.1-10.4,12.5V611.3z M1150.7,610.3
		c0.1-0.8,0.8-1.4,1.6-1.4c0.8,0.1,1.4,0.8,1.4,1.6c-0.1,0.8-0.7,1.4-1.5,1.4C1151.4,611.8,1150.7,611.1,1150.7,610.3L1150.7,610.3z
		 M1541.6,610.3c-0.5-0.9-0.5-3,0-4.8s-0.1-4.9-1.4-7c-2.1-3.4-2-4.2,0.2-7.7c1.4-2.1,3-7.9,3.6-12.7c0.8-6,2.2-10.1,4.6-12.7
		c3.2-3.5,4-3.7,11.3-2.2c6.2,1.3,8.7,1.1,12.1-0.8c5.7-3.2,6.1-3.1,4.2,1.5c-2.4,5.8-7.2,7.6-12.2,4.7c-9-5.2-21,2.5-14.7,9.4
		c2.3,2.5,3.6,2.8,7.9,1.4c7.4-2.3,10.3-1.9,5.7,0.8c-5.2,3.1-6.2,6.5-3.5,12.1c1.3,2.8,2,5.8,2.2,8.9c0,3.7-0.4,4-3,2.5
		c-1.6-1-4-4.4-5.2-7.7c-2.2-5.9-2.3-5.9-5.1-2.8c-2.5,2.8-2.7,4-1.3,9.4c1.2,4.9,1.2,6.6-0.4,7.7
		C1543.9,612.3,1542.7,612.2,1541.6,610.3L1541.6,610.3z M1744.3,601.7c-1.8-2.8-4.3-5.1-7.1-6.8c-2.5-1.4-4.2-2.9-3.8-3.4
		c2.3-2.5,15.1,8.9,14,12.5C1747.1,605,1745.8,604.1,1744.3,601.7L1744.3,601.7z M1512.3,596.3c-2.2-1.3-5.2-1.9-6.7-1.4
		c-3.7,1.3-18.3-2-19.7-4.4c-1.2-1.9-4.5-13.8-6.3-22.2c-0.5-2.4-0.1-4.9,1.2-7.1c1.7-2.5,2.6-2.7,5.3-1.2s3.4,1.4,5-2.4
		c1-2.3,4.2-5.6,7.2-7.3c3.2-1.8,5.7-4.6,7.3-7.9c1.1-3.2,3.7-5.6,6.9-6.7c2.8-1,6.8-4.3,8.9-7.3s4.7-5.5,5.6-5.5s3.9,2.4,6.5,5.3
		l4.7,5.3l-3.8,5.6c-4.3,6.3-4.1,11.8,0.8,19.3l3,4.5l-3.7,2.6c-2,1.5-3.7,3.5-3.7,4.6c0,3.7-9.4,25.1-11.8,26.7
		C1517.1,598.1,1515.2,597.9,1512.3,596.3L1512.3,596.3z M1598.1,596.3c-3.1-0.9-3.5-3.7-0.6-3.7c2.4,0.2,4.7,0.5,7,1.1
		c4.2,0.9,4.5,1.3,2,2.3C1603.4,597.3,1601.9,597.4,1598.1,596.3L1598.1,596.3z M1833.4,575.6c0-0.4,0.7-1.2,1.5-1.7
		s1.5-0.2,1.5,0.7c0.1,0.9-0.6,1.6-1.5,1.7C1834.1,576.3,1833.5,576,1833.4,575.6L1833.4,575.6z M1592.9,571.2
		c-1.2-1.3-1.3-2.8-0.2-4.9c0.8-1.7,1.1-3.7,0.6-4.6c-1.3-2.4,2-8.1,4.7-8.1c2.2,0,2.2,0.3-0.1,3c-2,2.4-2.2,3.9-1,7.3
		C1599.3,570.7,1596.7,575.4,1592.9,571.2L1592.9,571.2z M850.7,565.9c0-0.4,0.7-1.2,1.5-1.7s1.5-0.2,1.5,0.7
		c0.1,0.9-0.6,1.6-1.5,1.7C851.4,566.6,850.7,566.3,850.7,565.9L850.7,565.9z M859.6,546.5c0-0.4,0.7-1.2,1.5-1.7s1.5-0.2,1.5,0.7
		c0.1,0.9-0.6,1.6-1.5,1.7C860.3,547.2,859.6,546.8,859.6,546.5L859.6,546.5z M1570.4,522.1c-2.8-7.2-3.2-7.5-7.5-6.5
		s-4.5,0.9-2.8-2.4c1.3-2.8,2.6-3.3,5.8-2.5s5,0,8-3c2.2-2.2,4-5.3,4-6.9c0-4.1,5.5,9.6,6.8,16.9c0.9,5.6,0.8,5.9-1.5,3.8
		c-3.4-3.1-6.7,0.1-3.9,3.8c1.1,1.5,1.3,2.5,0.4,2.5c-1.3,0.1-2.6,0.5-3.9,1C1574,529.5,1572.6,527.8,1570.4,522.1L1570.4,522.1z
		 M1301,525c-1.7-2.9-2.6-16.1-1.4-19.6c1.3-3.7,1.4-3.7,5.1,2.4c4.5,7.3,6,12,4.5,14.5S1301.9,526.6,1301,525z M1631,516.6
		c0.1-1,0.6-2,1.5-2.6c0.8-0.5,1.5-0.3,1.5,0.6c-0.1,1-0.6,2-1.5,2.6C1631.7,517.8,1631,517.5,1631,516.6L1631,516.6z M1527.5,507.1
		c0-0.7,3-4.9,6.6-9.3c5.3-6.5,6.6-7.4,6.7-4.7c0,1.8-2.2,6-4.9,9.3C1531.2,507.9,1527.6,510,1527.5,507.1L1527.5,507.1z
		 M1559.5,502.8c-0.5-1.7-0.4-3.5,0.2-5.2c1-2,1.5-2,2.9-0.1c1.3,1.7,1.3,3-0.3,5.2C1560.7,505.3,1560.5,505.3,1559.5,502.8
		L1559.5,502.8z M427.9,496.4c0.9-1.2,1.2-2.7,0.7-3.2s0.4-1.1,2.1-1.1c2.3,0,2.9,0.8,2.3,3.2c-0.3,1.8-1.9,3.2-3.8,3.2
		C426.9,498.6,426.6,498.1,427.9,496.4L427.9,496.4z M1569.5,496c-0.5-1.4-1-2.9-1.6-4.3c-0.2-0.4-0.1-0.9,0.2-1.1
		c0.2-0.1,0.4-0.2,0.6-0.1c1.5,0,3.6,6.7,2.4,7.8C1570.8,498.7,1570,497.7,1569.5,496z M1554.5,491.8c-2.1-2.7,0-6.6,3-5.9
		c2,0.5,2,1.2,0.5,4.3S1555.9,493.5,1554.5,491.8L1554.5,491.8z M1572,486.2c-1.7-2.4-2.8-4.6-2.5-4.9c1.2-1.3,5.3,1.6,7.6,5.3
		C1580.4,492.3,1576.1,491.9,1572,486.2L1572,486.2z M1547.7,480c-1.3-1.4-2.4-3.5-2.4-4.5s1.5-0.3,3.2,1.7s2.9,4,2.4,4.5
		S1549,481.4,1547.7,480L1547.7,480z M387.7,479.7c-0.6-0.8-1-1.8-1-2.8c0-1,0.7-0.9,1.8,0.2s1.4,2.3,1,2.8
		C388.9,480.4,388.2,480.3,387.7,479.7C387.7,479.7,387.7,479.7,387.7,479.7L387.7,479.7z M379.3,477.6c0-0.9,0.3-1.6,0.6-1.6
		s1.1,0.7,1.6,1.6s0.2,1.6-0.6,1.6C380,479.1,379.3,478.4,379.3,477.6L379.3,477.6z M448.7,474.3c0-0.9,0.3-1.6,0.6-1.6
		s1.1,0.7,1.6,1.6s0.2,1.6-0.7,1.6C449.4,475.9,448.8,475.2,448.7,474.3L448.7,474.3z M1562.5,474.1c-1.9-1-4.1-1.2-6.2-0.7
		c-2.9,0.8-4.8-0.5-10.2-6.5c-7.6-8.5-9-12.1-6.8-16.7c1-2.6,1.5-5.3,1.6-8.1c0-8.8,5.4-8.4,9.3,0.6c2.2,5,2.2,6.1,0.2,11.5
		c-2.2,5.8-2.2,6,1.8,10.5c2.8,3.3,5,4.4,7.2,3.7c1.9-0.5,3.9,0.1,5.1,1.6C1567,473.6,1565.9,476.1,1562.5,474.1L1562.5,474.1z
		 M439.9,463.9c0-0.4,0.7-1.2,1.5-1.7s1.5-0.2,1.5,0.7c0.1,0.9-0.6,1.6-1.5,1.7C440.6,464.6,439.9,464.3,439.9,463.9z M671.9,458.1
		c0.1-0.8,0.8-1.4,1.6-1.4c0.8,0.1,1.4,0.8,1.4,1.6c-0.1,0.8-0.7,1.4-1.5,1.4C672.6,459.7,671.9,459,671.9,458.1L671.9,458.1z
		 M435.5,451.9c0.1-1,0.6-2,1.5-2.6c0.8-0.5,1.5-0.3,1.5,0.6c-0.1,1-0.6,2-1.5,2.6C436.1,453,435.5,452.7,435.5,451.9L435.5,451.9z
		 M422.9,445.2c-0.5-0.9,0.1-1.2,1.4-0.6c2.6,1.1,3,2.2,0.9,2.2C424.3,446.7,423.4,446.1,422.9,445.2L422.9,445.2z M657.9,445.2
		c-0.5-0.9-0.2-1.6,0.7-1.6c0.9,0,1.6,0.7,1.6,1.6c0,0,0,0,0,0c0,0.9-0.3,1.6-0.7,1.6S658.4,446.1,657.9,445.2L657.9,445.2z
		 M428.9,442c-0.5-0.9-0.2-1.6,0.6-1.6c0.9,0,1.6,0.7,1.6,1.6c0,0.9-0.3,1.6-0.7,1.6S429.3,442.8,428.9,442L428.9,442z M435.5,442
		c0-0.9,0.3-1.6,0.6-1.6s1.1,0.7,1.6,1.6s0.2,1.6-0.7,1.6C436.2,443.6,435.5,442.9,435.5,442L435.5,442L435.5,442z M333.9,437.7
		c-1-0.4-1.7-1.3-1.9-2.3c0-2.3,6.5-1.7,9.7,0.9c2.7,2.3,2.6,2.4-1.6,2.3C338.1,438.6,335.9,438.3,333.9,437.7L333.9,437.7z
		 M371.3,436.7c-1.3-0.8-4.3-1-6.5-0.5c-2.6,0.5-5.2,0.3-7.7-0.6c-3.2-1.4-2.9-1.6,2.4-1.4c7.9,0.2,10-1.2,7.9-5.3
		c-1.4-2.9-1-3.1,6.1-3.1c6.8,0,16.6,3.4,18.3,6.4C393,434.2,374,438.4,371.3,436.7L371.3,436.7z M399.7,437.7
		c-1.8-1.9,0.4-3.9,4.3-3.9c2.3,0,3.5,0.8,3.1,2C406.4,438.1,401.2,439.5,399.7,437.7L399.7,437.7z M1468.8,435.2
		c-3.9-4.3,0-9.4,7.1-9.4c3.2,0,3.2,0,0.4,5.1C1473.2,436.8,1471.3,437.9,1468.8,435.2L1468.8,435.2z M411.9,434.8
		c0-0.4,1-1.1,2.2-1.6s2.2-0.2,2.2,0.6s-1,1.6-2.2,1.6S411.8,435.2,411.9,434.8L411.9,434.8z M348,423.2c-0.5-0.5-3.6-1-6.9-1
		c-4.6-0.1-5.7-0.6-4.6-2.1s-0.5-3.4-5.9-7.2c-10.6-7.6-16.6-9-23.8-5.9c-6.7,2.9-7.2,3-7.2,1.2c0-3.4,11.8-7.1,20.2-6.4
		c8.1,0.7,12.6,2.6,28.5,11.9c13.1,7.7,13.1,7.7,8.9,9C352.4,424.2,349,424.4,348,423.2L348,423.2z M358.7,409.6c2.9-2,4.4-2,4.4,0
		c0,0.9-1.5,1.6-3.3,1.6C357.1,411.1,356.9,410.8,358.7,409.6L358.7,409.6z M1535.6,406.7c-1.4-1.4-2.6-3.1-3.4-4.9
		c-1.5-3.1-1.3-4.6,0.9-8.8c3.4-6.5,5.8-7.3,6.9-2.4C1541.1,395.8,1537.7,408.3,1535.6,406.7z M368.4,404.5c1-1.8,6.5-2,6.5-0.2
		c0,0.7-1.7,1.3-3.7,1.5S367.9,405.3,368.4,404.5L368.4,404.5z M339.1,389c-2.4-3-2-6.9,0.6-6.9c0.8,0,1.2,1.4,0.8,3.2
		s0,3.5,0.9,3.8s1.3,1.1,0.8,1.7S340.4,390.5,339.1,389z M347.7,376.3c-0.5-1.5-0.6-3.1-0.2-3.5s1.2,0.4,1.7,1.9s0.6,3.1,0.2,3.5
		S348.2,377.7,347.7,376.3L347.7,376.3z M338.4,374.8c0.1-1.4,1.4-2.5,2.8-2.4c2.5,0,2.6,0.3,0.6,2.4c-0.8,1-1.7,1.8-2.8,2.4
		C338.7,377.2,338.4,376.1,338.4,374.8L338.4,374.8z M1577.8,339.3c0-1.3-1.6-4.4-3.6-7c-4.7-6.1-3-10.2,2.5-6.2
		c4,2.9,6.1,8.7,4.6,12.9C1580.2,342.2,1577.8,342.4,1577.8,339.3z M431.1,329.5c0-0.4,0.7-1.2,1.5-1.7s1.5-0.2,1.5,0.7
		c0.1,0.9-0.6,1.6-1.5,1.7C431.7,330.3,431.1,329.9,431.1,329.5z M1586.1,327.5c-0.9-2.7,1.3-5.3,4.7-5.4c2.3,0,2.4,3.6,0.1,6.1
		S1587.2,330.8,1586.1,327.5L1586.1,327.5z M1599.6,321.6c-2.9-4.8-6.9-5.5-16.2-2.6c-3.8,1.1-6.4,1.2-8.1,0
		c-1.4-0.9-1.8-1.7-0.8-1.7s3.7-1.9,6.2-4.2c3.2-2.9,5.5-3.8,8-3.1s5.5-0.7,11.5-5.6c11.7-9.6,12.8-12.6,8-22.9
		c-4.6-9.9-3.3-13,3.5-8.7c4.9,3.2,9.6,12.3,8.2,16.2c-0.5,1.4,0.2,5.7,1.6,9.6c1.9,5.6,2.1,7.9,0.8,10.5c-1.9,3.9-7.2,6.5-13.2,6.5
		c-3.4,0-4.4,0.9-5.5,5.1l-1.3,5.1L1599.6,321.6L1599.6,321.6z M1000.9,316.1c-1.8-1.9-0.8-3.7,2-3.7c1.6,0,3.3-0.7,3.8-1.6
		c1.4-2.4,3.7-1.9,2.8,0.6S1002.2,317.5,1000.9,316.1L1000.9,316.1z M950.5,313.3l-4.4-2.2l5.9-0.1c7.4-0.1,12.8,1.4,11.7,3.3
		C962.5,316.4,955.6,315.9,950.5,313.3L950.5,313.3z M890.8,297.2c-5.9-3.3-6.2-3.7-3.1-4.6c3.7-1.1,11.9,0.3,11.7,1.9
		c-0.3,1.3-0.6,2.5-1.1,3.7C897.4,300.6,896.7,300.5,890.8,297.2L890.8,297.2z M861.2,279.7c-1.3-4-1.2-5.5,0.5-7.4
		c3-3.3,5.3-1,5.3,5.3C867,285,863.3,286.3,861.2,279.7z M826.5,281c1-3,5.5-3.5,4.6-0.5c-0.6,1.3-1.7,2.2-3.1,2.5
		C826.4,283.4,825.9,282.8,826.5,281L826.5,281z M1598.7,262.5c-2.7-4.2-2.8-4.9-0.8-8s2-4-0.1-8.3c-3.3-7-2.9-7.5,2.9-2.6
		c3.8,2.9,8,5.1,12.5,6.7c8.3,2.7,10.3,4.8,6,6.3c-1.6,0.6-3,2.1-3,3.4c0,1.8-1,2.1-4.1,1.2c-7.8-2.2-10-1.6-9.5,2.3
		C1603.3,268.3,1602.3,268.1,1598.7,262.5L1598.7,262.5z M863.5,264.4c-1.4-1.5-1.3-3.9,0.3-5.4c0.3-0.3,0.6-0.5,1-0.6
		c1.6-0.7,2.2,0.2,2.2,3.1C867,265.4,865.6,266.6,863.5,264.4L863.5,264.4z M1589.3,230.3c-1.3-1.6-4.3-7.2-6.7-12.5
		s-8.9-15.1-14.3-21.8c-6.1-7.4-9.2-12.4-8-12.8s3.3,1.3,4.9,3.8c4.1,5.9,9.1,11.1,17,17.5c6.5,5.3,9.8,10.2,5.6,8.4
		c-4.9-2-3.7,2.8,2.7,10.6c3.7,4.5,6.7,8.6,6.7,9C1597.1,234.4,1591.4,232.8,1589.3,230.3L1589.3,230.3z M507.9,227.5
		c0-1.3,0.6-2.4,1.4-2.4s1,1.1,0.6,2.4s-1.1,2.4-1.4,2.4S507.9,228.8,507.9,227.5z M500.2,222.3l-5.5-0.6l10.4-11.2
		c5.7-6.2,11.1-11.2,12-11.2s0.7,1.2-0.7,2.8c-3.1,3.7-1,7.9,4.6,9.3c2.6,0.7,4.7,2.5,5.8,4.9c1.5,3.6,1.3,4-3.9,5.6
		C517.6,223.4,511.2,223.5,500.2,222.3L500.2,222.3z M140.1,210.6c-5.1-5.2-5.7-7.4-2.3-8.9c3-1.3,8.7,2.9,10.8,8
		c2.2,5.4,2.2,5.6-1.1,5.6C145.9,215.4,142.6,213.2,140.1,210.6z M790.9,202.4c1.6-0.9,4.8-2.3,7.1-3.2c5-2,4.2-4.1-2.2-5.5
		c-4.4-1-4.5-1.2-2-3.2c1.5-1.2,2.3-2.9,1.7-3.9s1-2.4,3.5-3.4s4.4-2.4,4.4-3.3c0-3.7-3.1-10-4.8-9.8c-3.9,0.6-5.8-0.2-5.1-2.1
		c0.3-1.7,0.1-3.4-0.7-4.9c-1.9-4.1,2.5-12.4,6.5-12.5c0.6,0,0.9,0.9,0.7,2s1.2,2.2,3.1,2.6l3.5,0.6l-3.3,3.9l-3.3,3.9l3.7,1.6
		c4,1.7,7.9,7.1,11.8,16.6c1.9,4.6,3.1,5.8,5.3,5.1c4.5-1.3,5,2.1,0.8,5.1c-2.9,2.1-3.4,3.2-2.2,4.6s-1.2,2.3-9.8,3.7
		c-6.3,1-13.8,2.3-16.7,2.9C789.1,203.8,788.7,203.7,790.9,202.4L790.9,202.4z M766,193.5c-0.5-1.4,0.1-4.7,1.3-7.3
		c1.4-2.9,1.7-5,0.7-5.6c-2.6-1.7-1.6-4,2.2-5c2.1-0.6,3.9-1.7,5.4-3.3c2-2.6,11.1-3.1,12.4-0.7c0.5,0.9-0.1,3.2-1.4,5.2
		c-1.4,2.4-2.2,5.1-2.3,7.9c0,3.6-1,4.7-6.3,6.7c-3.5,1.3-7.4,2.9-8.7,3.5C767.7,195.7,766.6,195.2,766,193.5L766,193.5z
		 M793.1,177.4c0-0.4,0.7-1.2,1.5-1.7s1.5-0.2,1.5,0.7c0.1,0.9-0.6,1.6-1.5,1.7C793.8,178.1,793.1,177.8,793.1,177.4L793.1,177.4z
		 M137.3,169.6c-1.4-1.9-1.4-2.8,0.5-4.4c3-2.7,4.5-0.9,2.8,3.4C139.3,171.6,138.8,171.7,137.3,169.6L137.3,169.6z M135,157.4
		c-0.5-0.9,0.1-2.5,1.3-3.6c2.4-2.2,2.9-0.5,0.9,3C136.4,158.2,135.5,158.4,135,157.4L135,157.4z M39.4,156.4
		c0-1.1,4.5-3.1,10.8-4.8c2.4-0.6,3.8-0.5,3.4,0.4s-2.7,1.9-4.9,2.4c-2.3,0.5-4.5,1.2-6.7,2C40.6,157,39.4,157,39.4,156.4
		L39.4,156.4z M917.6,138.2c-2.7-1.2-2.2-3.1,0.9-3.3c1.2-0.2,2.5,0.6,2.7,1.8c0,0.1,0,0.2,0,0.3
		C921.2,139.4,920.7,139.6,917.6,138.2L917.6,138.2z M592.9,129.9c-9.3-5.6-13.8-14.2-11.1-21.3c1.3-3.4,1.3-5.5,0.2-7.9
		c-2.5-5,0.7-10.9,8.9-16.4c3.9-2.6,7.8-6.2,8.6-7.9c2.4-4.8,0.3-13.2-3.9-15.2c-2.1-1-3.2-2.7-2.8-4c1-3-3.9-13.2-8.8-18.2
		c-3.6-3.7-5.2-4.1-17.5-4.2c-16.8-0.1-20-1.1-19.7-6.4c0.1-2.2,0.6-4,1-4s6.4-0.8,13.3-1.7c8.8-1.2,16.7-3.6,26.5-8.2
		c15.2-7.1,16.3-7.2,52.5-6.3C652.1,8.4,664,7.4,675.6,5c12.6-2.3,21.8-3.2,26.8-2.5c4.6,0.5,9.3,0.3,13.9-0.8
		c8.1-2.4,29,0.5,37.2,5.1c4.9,2.7,7.4,3.1,15.7,2.2c8.9-1,9.5-0.8,6.9,1.3c-1.6,1.3-6.6,2.9-11.1,3.6c-9.7,1.4-18.6,9-16.3,13.8
		c1,2.1,0.3,3.9-3,7.3c-2.4,2.5-4.7,5.8-5.1,7.3c-1,3.6-14.1,10.2-20.6,10.4c-7.2,0.3-8,2-2.4,5.3c3,1.8,5.8,3.8,8.5,6L730,67
		l-3.4,1.4c-2.6,1-4.7,0.4-9-2.9c-5.9-4.4-12.2-4.5-8.8,0c1.3,1.7,1,2.4-1.5,3.1c-5.5,1.6-1.6,4.7,4.5,3.6c3.9-0.7,6-0.3,7.2,1.3
		c1.4,1.9-0.4,2.8-11.2,5.2c-7.1,1.6-16.6,3-21,3.1c-8.3,0.1-14.3,2.8-23.1,10.1c-2.9,2.4-9,4.8-16.1,6.3c-14.9,3.1-20,6.7-29,20.8
		c-7.2,11.3-11.6,15.5-16.1,15.5C601.3,134.3,597,132.3,592.9,129.9L592.9,129.9z M488.1,119.1c-3.4-2.4-6.3-5.4-8.6-8.9
		c-3.1-5.3-5.9-6-14.3-3.4c-2.8,0.9-6,1-7.3,0.2c-4.4-2.7,3.5-5.3,12.3-4.1c6.7,0.9,8.2,0.6,9-1.6c1.6-4.5,8.8-7.7,12.7-5.7
		c2.5,1.2,4.7,1.2,7.8-0.1c4.2-1.8,4.3-1.9,1.5-4.1c-1.6-1.3-3.4-2.3-4-2.3s-2.9-3.3-5-7.2s-6.1-8.7-8.9-10.6
		c-4.7-3.2-5.3-3.2-9.5-0.8c-3.7,2.1-5.8,2.2-11.5,0.8c-3.9-0.9-9.3-1.3-12-0.7c-4.8,1-13.5-1.6-13.5-4c0-4.3,12.5-14.1,20-15.6
		l5.9-1.2l-4.2,4.9c-5.8,6.8-3.6,9.9,2.7,3.8c2.7-2.6,7.3-5.2,10.3-5.8c4.6-0.9,6.5-0.3,12.2,3.8c7.6,5.5,8.2,5.7,12.5,3.2
		c2.6-1.5,3.5-1.1,6.4,2.8c1.9,2.7,6.3,5.6,10.5,7c6.8,2.3,7.2,2.8,7.2,7.9c0,3.8,1,6.2,3.4,8.1c9.9,7.8,9.7,7.4,7.5,11.2
		c-2.9,5.2-5.3,5.5-11.8,1.9c-4.5-2.5-6.5-2.9-8.8-1.5c-2.8,1.6-2.8,2-0.6,6.7c1.8,3.9,2,5.9,0.8,8.9c-1.5,3.7-1.8,3.8-6,1.4
		c-8.2-4.7-13.8-1.6-6.1,3.4c2.4,1.6,4,3.4,3.6,4.2C501.2,124.2,493.8,122.9,488.1,119.1L488.1,119.1z M791.6,121.2
		c0-0.7,1-1.4,2.2-1.4s2.2,0.6,2.2,1.4s-1,1.4-2.2,1.4S791.6,121.9,791.6,121.2L791.6,121.2z M432.4,112.5c-2.9-1.7-5.2-1.8-9.3-0.6
		c-6.9,2.1-9.4,0.6-5.9-3.7c4.5-5.4,7.6-6.5,13-4.6c6.1,2.2,8.8,5.5,7.2,8.7C436.4,114.4,435.7,114.4,432.4,112.5L432.4,112.5z
		 M725.9,111.8c-2.4-1.8-5.5-2.8-6.9-2.3c-1.9,0.6-2.3,0.1-1.7-2.3c0.9-3.7,13.9-9,18.3-7.5c1.5,0.5,5.4,0.1,8.7-1
		c5.1-1.7,6.5-1.5,9.9,0.9l4,2.9l-3.6,3c-3,2.6-8.6,4.8-22,8.8C731.3,114.7,728.3,113.5,725.9,111.8L725.9,111.8z M324.7,81.6
		c-3.8-1-7.5-2.4-11-4.2l-7.3-3.6l10.3-0.8c5.6-0.4,10.3-1.5,10.3-2.4s-4-2-8.9-2.5c-6.4-0.6-7.7-1.1-4.4-1.6
		c5.4-0.9,5.8-3.5,0.7-4.9c-3.6-1-3.6-1.1,1.5-3.5c8.9-4.2,18.3-5,26.6-2.3c6.9,2.2,7.9,2.2,11.2-0.1c2.3-1.6,3.6-1.9,3.8-0.8
		c0.1,1,0.3,2.7,0.4,3.7c0.3,3.5,3.3,3,6.8-1.1c3.3-3.8,8.9-5.6,8.9-2.9c0,0.7-1.3,3.6-2.9,6.4l-2.9,5.2l4.8,2.7l4.8,2.7l-7.8,3.9
		c-7.1,3.5-8.5,3.7-14.9,2.1c-6.1-1.6-7.9-1.4-14.1,1.5C333.4,82.6,331.9,82.8,324.7,81.6L324.7,81.6z M383.9,80.4
		c-1.3-1.8-0.8-2.6,2.7-4.2c2.4-1.1,5.8-1.4,7.7-0.8c3.2,1.1,3.1,1.3-1.7,4.1C386.3,83.2,386,83.2,383.9,80.4L383.9,80.4z
		 M791.6,72.9c2.9-2,4.4-2,4.4,0c0,0.9-1.5,1.6-3.3,1.6C790.1,74.5,789.8,74.2,791.6,72.9L791.6,72.9z M1062.8,68.4
		c-7.6-3.3-7.4-3.1-5.2-6c1-1.3,1.3-2.5,0.6-2.5s0-1.2,1.7-2.5s3-3,3-3.6c0.1-2.4,6.1-8.7,10.3-10.8c2.4-1.2,8.8-2.6,14-3
		s12.4-1.3,15.7-1.9c3.6-0.6,6.5-0.4,7,0.6c1,1.9-1,2.6-12.4,4.9s-18.2,5.7-22.7,11.6c-4.7,6.2-4.9,10.1-0.5,13.4l3.3,2.5l-4.4-0.1
		C1069.5,70.8,1066,69.9,1062.8,68.4L1062.8,68.4z M288.8,63.7c-2.4-2.6-1.8-3.2,9.6-10c13.4-8,20.1-9.1,32.1-5.1l6.6,2.2l-8.9,1.9
		c-7.3,1.6-22.6,7.2-34.8,12.7C292.4,66,290.2,65.3,288.8,63.7L288.8,63.7z M395.6,61.6c0-0.9-1.8-2.7-4.1-4.1l-4-2.5l5.4,0.9
		c3.9,0.7,5.8,0.3,6.6-1.4c1-2,10.4-5.8,14.2-5.9c0.6,0,0.1,2.2-1.1,4.8C409.6,59.8,395.6,66.5,395.6,61.6L395.6,61.6z M418.6,56.9
		c-2.1-3.8,12.3-9.6,18.5-7.4c4.5,1.6,1.5,4.2-6.3,5.7c-3,0.5-5.9,1.3-8.8,2.3C420.6,58.1,419.1,57.8,418.6,56.9z M465.8,45
		c-9.8-0.8-17.9-1.7-18.1-1.9c-1.3-1.3,2-5.7,5.5-7.3s5.1-1.4,9.9,1.3s7.6,3,16.3,2.3c5.8-0.5,12.5-0.3,14.8,0.3l4.2,1.2l-5.2,3
		c-2.8,1.7-6.2,2.9-7.4,2.8L465.8,45z M891,38.4c-7.3-4.1-8-5.9-2.3-5.9c2.2,0,4.4-0.6,6.3-1.8c1.9-1.5,1.9-1.6-0.2-0.9
		c-1.5,0.4-3,0.1-4.1-1c-1.3-1.4-2-1.4-2.8,0.1s-2.4,1.6-5.5,0.6c-7.8-2.6-9.5-3.7-9.5-6.2c0-2.2,2-2.3,14-1.4
		c9.2,0.7,14,0.5,14-0.6c0-3.2,4.1-1.6,5.2,2l1.1,3.7l0.7-3.7c0.4-2,1.6-3.6,2.8-3.6c1.1,0.1,2-0.8,2.1-1.9c0,0,0,0,0-0.1
		c0-1.5,0.4-1.5,1.8,0c1,1.1,6,1.9,11.8,1.9c10.6,0,13,2.1,6,5c-3.7,1.5-10,1.1-17-1.2c-1.4-0.4-2.6-0.2-2.6,0.5c0,1.5,8.3,7,10.6,7
		c0.8,0,2.4,1,3.5,2.3c1.8,2,1.8,2.4-0.1,3.2c-1.2,0.5-2.2,0.1-2.2-0.8c0-1.1-1.9-1.4-5.3-0.7c-3.7,0.8-5,0.6-4.3-0.7
		c0.5-1,0.2-2.8-0.8-4.2c-1.9-2.5-7.3-3.3-7.3-1c0,0.7-2.2,3.9-4.8,7.1l-4.8,5.8L891,38.4L891,38.4z M499,34.8
		c-2.6-1.7-6.2-2.1-11.8-1.6c-5.3,0.5-9.3,0.1-11.5-1.3c-3-1.9-2.3-2.1,6.9-2c11.6,0,16.6-2.6,10.3-5.6c-3-1.4-2.5-1.5,2.6-0.7
		c6.6,1,9.2-0.9,5.6-4.2c-3.9-3.5,0.4-4.6,14.1-3.6c8.5,0.6,13.8,0.3,16-1c4.2-2.5,2.5-5.6-2.2-4.3c-3.3,0.9-26.2-0.6-25.3-1.7
		c0.7-0.8,33.2-4,54.5-5.5c11.1-0.8,23.4-1.8,27.3-2.4l7.2-1l-11.9,6.3c-11.2,5.9-29.3,11.6-36.8,11.6c-1.8,0-7,2.2-11.6,4.9
		s-9.2,4.9-10.3,4.9s-6,2.2-10.7,4.8c-4.7,2.7-8.7,4.8-8.7,4.8S501.1,36.1,499,34.8L499,34.8z M470.2,20c-7.2-1.7-7.4-2.4-2.2-5.4
		c7.7-4.3,14.9-5.5,18.2-2.8c2.6,2.1,2.5,2.4-2.7,5.8C478.3,21.1,476.1,21.4,470.2,20z"/>
</g>
</svg>
