<?xml version="1.0" encoding="utf-8"?>
<!-- Generator: Adobe Illustrator 27.2.0, SVG Export Plug-In . SVG Version: 6.00 Build 0)  -->
<svg version="1.1" xmlns="http://www.w3.org/2000/svg" xmlns:xlink="http://www.w3.org/1999/xlink" x="0px" y="0px"
	 viewBox="0 0 800 800" style="enable-background:new 0 0 800 800;" xml:space="preserve">
<style type="text/css">
	.st0{fill:#B21212;}
	.st1{fill:none;stroke:#C64F4F;stroke-miterlimit:10;}
	.st2{fill:#FDD9BA;}
	.st3{fill:#FF2A23;}
	.st4{fill:#DC0D27;}
	.st5{fill:#FED3B0;}
	.st6{fill:#BDCF44;}
	.st7{fill:#94A61D;}
	.st8{fill:#728035;}
</style>
<g id="Layer_3">
	<g>
		<path class="st0" d="M598.6,458.7c7.7,6.2,18.1,3.6,22.4,12.5c9.6,29.4,9.1,64.6,41,79.7c68.1,24.3,154.4-12.8,132.8-98
			c-5.9-25.3-19.7-47.9-34.6-68.9c-7.7-10.2-14.4-21.7-14.9-34.9c-2.1-31.2,21.1-58.2,26.7-88.9c8.6-39.3-20.9-83.6-61.6-81.5
			c-13.1,0.6-25.5,5.9-37.6,11.1c-16,6.9-32.6,14.2-44.6,27.2c-4.7,5.1-8.8,11.1-14.6,14.8c-26.4,9.6-62.5,6.9-95.1,2.8
			c22.8-17.5,55.5-45.3,52.4-69.7c-2.4-10.4-12.2-17-17.1-26.4c-6.4-12.1-3.1-28.8,7.3-37.4c9.3-6.4,20.7-11.9,20.8-25.1
			c3.8-53.7-60-76.7-102.2-58.3c-22,7.7-41.5,21.2-60.3,35.2c-14.5,10.8-30.4,25.6-28.1,43.8c2.2,17,19.3,27.8,24.4,44.1
			c3.4,10.9-31.6,45.5-61.9,70.2l-64.1,21.7c-5.9-17.6-15.5-32.5-34.5-40.3c-29.8-7-65.4-2.5-92.3,12.5
			c-41.5,26.1-46.7,84.6-74.6,125.1c-15.8,23-38.8,39.8-57.3,60.6c-18.6,20.8-33.2,48.9-26.5,75.8c9.2,36.4,53.6,52.2,90.3,45.6
			c8.3-2.6,16.6,0.4,19.6,9c15.9,35.7-28.9,80.9-8.5,114.1c4.6,7.5,12,12.8,17.7,19.5c13.5,15.7,17.3,38.2,30.6,54
			c27.7,33.8,113.3,30.9,143.1-1.4c4.8-6.2,7.7-13.6,12.2-19.8c8.3-11.4,21.3-18,33.2-25.4c17.4-10.8,33.2-24.1,47.1-39.3
			c-7.9,22.3-11.2,42.9-1.3,52.5c8.7,6.4,24.3,3.1,35.5,6.4c14.5,4.2,20,20.7,12.2,36.9c-7.7,13.5-18.3,28-10.9,38.8
			c25.7,47.1,115.6,9.6,156.2-42.8c22.2-25.7,38.2-53.9,53.1-82c11.5-21.6,22.3-47.7,9.2-60.5c-12.2-11.9-39-5.6-54.3-14.4
			c-16-9.2-24.8-76.5-6.3-94.5"/>
	</g>
	<g>
		<g>
			<path class="st1" d="M1111,529.2"/>
		</g>
	</g>
	<g>
		<g>
			<path class="st0" d="M54.2,188.5c10.9,4.3,22.6-0.2,31.1-7.1c6.5-5.2,9.8-12.5,14-19.3c0.4-0.7,0.8-1.3,1.3-1.9
				c-1.6,2-1.7,2.2-0.2,0.6c-2.7,2-0.8,0.6,0.9-0.4c2.9-1.6,6.1-2.7,8.9-4.5c9.7-6.2,16.6-15.9,16.5-27.8c0-8.3-6.1-17.5-14.7-19.3
				c-13.1-2.8-26-2.9-39.2-0.2c-12.6,2.6-26.5,8.3-33.9,19.4c-9.2,13.9-4.2,32.3,10.1,40.4c13.7,7.8,28.7,3.3,41.1-4.7
				c8.8-5.7,13.2-18,7.2-27.4c-5.7-8.8-18-13.2-27.4-7.2c-1.3,0.9-2.7,1.7-4.1,2.5c-0.6,0.3-4.5,1.9-1.9,1.1c1.4-0.6,1.2-0.6-0.6,0
				c0.7-0.1,1.5-0.2,2.2-0.2c-1.8,0-1.8,0,0,0.1c1.3,0,2.5,0.4,3.6,1.1c2,1.3,3.9,3.9,4.4,6.2c0,2.2,0.1,4.5,0.1,6.7
				c-0.3,1.3-0.8,2.4-1.7,3.4c-1.1,1.3-1,1.3,0.3,0c-0.6,0.5-1.2,1-1.8,1.4c0,0,3.5-1.9,3.7-2c-2.5,1.3-0.7,0.3,0.9-0.2
				c1.4-0.5,2.8-0.9,4.2-1.3c1.7-0.5,3.4-0.8,5.1-1.2c4.2-1-3.1,0,1.6-0.3c2.9-0.2,5.8-0.3,8.7-0.2c1.7,0.1,3.5,0.2,5.2,0.4
				c-3.6-0.4,0,0.1,1.6,0.5c-4.9-6.4-9.8-12.9-14.7-19.3c0-2.5,1.2-3.9,2.3-5.8c1.1-1.2,1-1.2-0.2,0.1c0.6-0.5,1.2-0.9,1.8-1.4
				c-0.6,1.4-5.3,2.8-6.7,3.5c-6.1,2.9-11.2,6.9-15.4,12.3c-3.3,4.3-6.2,9-8.7,13.9c-1.7,3.2,1.6-1.1,0,0.1
				c-0.8,0.6-3.6,3.3,0.1,0.1c-1.8,1.6-0.6,0.1,0.9-0.3c1.3-0.4,2.7-0.5,4-0.2c1.8,0.3,1.8,0.2,0-0.3c-9.8-3.9-22.4,4.2-24.6,14
				C37.6,175.4,43.8,184.4,54.2,188.5L54.2,188.5z"/>
		</g>
	</g>
	<g>
		<g>
			<path class="st0" d="M711.4,633c-0.5,2.6,0.7-1.7,1.1-2c-0.3,0.2-1.2,1.8-1.4,2.2c-1,2.1,2.5-3.5,1.2-1.5
				c-1.2,1.9-2.8,3.5-4.1,5.3c-3.2,4.6-4.9,10.1-5,15.6c-0.1,8.7,5.1,16.9,12.3,21.4c5.3,3.4,11.3,4.3,17.4,4.8
				c12.3,1.1,25.8-2.9,32-14.4c7.6-14.3,1.2-32.9-14.9-37.4c-10.1-2.8-22.2,3.5-24.6,14c-2.4,10.6,3.2,21.6,14,24.6
				c-3.1-2.4-6.2-4.9-9.2-7.3c-0.5-1.1-0.9-2.1-1.4-3.2c-0.8-2.8-0.6-5.8,0.5-8.5c1.3-3,4.1-5.4,6.8-7c2.7-1.6-1.9,0.1,1.4-0.4
				c3.4-0.5-0.5-0.1-1.3-0.2c-0.9,0-1.8-0.1-2.6-0.1c-2.9-0.1,1.6,0,2,0.3c-0.2-0.2-3.9-2.2-0.8,0c1.7,0.5,3,1.5,3.9,3.1
				c2.3,1.4,3.4,3.5,3.6,6.2c1,3.7,1,5.3,0.1,8.8c-0.9,3.2,0.2,0.8,0.5-0.1c-0.2,0.5-2.9,3.7-1.2,1.6c3.6-4.6,7.3-9.2,8.4-15.1
				c1.9-10.2-2.8-22.1-14-24.6C726.1,616.8,713.5,622,711.4,633L711.4,633z"/>
		</g>
	</g>
	<g>
		<g>
			<path class="st0" d="M670,101.8c0.1,7.9,6.8,15.2,15,14.6c4.7-0.3,8.1-3,9.6-7.3c-0.7,2,0.2-0.3,0.4-0.7c1-1.8-1,1,0.6-0.6
				c4.6-4.7,3.4-12.2-2-15.7c-7.5-4.8-18.8-4.5-24.9,2.6c-5.8,6.8-5.5,17.2,1,23.4c7.8,7.4,21.4,3.7,27-4.6c3-4.5,3.2-10.2,0.7-14.9
				c-1.1-2.1-3-4.1-5.1-5.4c-3.2-1.9-6.3-1.9-9.9-1.4c-5.2,0.8-8.5,7.6-7,12.3c1.8,5.7,6.7,7.8,12.3,7c-3.3,0.5-7.5-0.6-8.4-4.3
				c-0.3-1.2-0.1-2.9,0.5-4c0.3-0.5,2.1-1.8,1.3-1.4c-1.1,0.6-0.9,0.8,0.1,0.1c-0.1,0.1-2.3,0.8-2.4,0.7c-0.3-0.7,3.9,0.7,3.6,0.5
				c0.4,0.3,0.8,0.6,1.2,0.9c-0.5-0.6-0.5-0.5,0.1,0.2c0.5,0.7,0.6,0.8,0.2,0.1c0.6,1.5,0.7,1.8,0.5,1.1c-0.3-1.1-0.1,2.4,0.1,0.7
				c0.2-2-0.7,2.4-0.1,0.4c-0.2,0.5-0.4,0.9-0.6,1.4c0.5-0.9,0.3-0.7-0.6,0.6c1.2-1.4-1,0.7-0.1,0.1c0.9-0.6-1.9,0.6-0.1,0.2
				c-1.4,0.1-1.7,0.2-0.9,0.2c0.4,0,0.7,0,1.1,0c-1.3-0.2-1.6-0.2-0.9-0.1c0.4,0.1,0.7,0.2,1,0.3c-0.2,0.2-1.9-1,0.2,0.3
				c-0.7-5.2-1.3-10.5-2-15.7c-2.9,3-4.8,6.2-6.1,10.1c3.2-2.4,6.4-4.9,9.6-7.3c-2.3,0.1,1.8,0.3,2.8,1.2c1.1,0.9,2.2,2.7,2.2,4.2
				c-0.1-5.2-4.5-10.2-10-10C674.6,92.1,669.9,96.2,670,101.8L670,101.8z"/>
		</g>
	</g>
	<g>
		<g>
			<path class="st0" d="M674.3,52c12.9,0,12.9-20,0-20C661.4,32,661.4,52,674.3,52L674.3,52z"/>
		</g>
	</g>
	<g>
		<g>
			<path class="st0" d="M42.2,728.1c-5.2,16.6,8.8,33.7,26.3,29.9c17.5-3.8,21.3-25.7,8.8-37.1c-1.2-1.1-1.1-2.5-0.8-0.3
				c-0.3-1.7-0.2-3.5-0.5-5.3c-0.8-4.5-3.1-8.4-7.1-10.7c-7.9-4.6-17.5-1-22.2,6.3c-4.5,7.1-5.5,17.4-1.4,24.8
				c4.2,7.7,12.9,11.6,21.4,9.3c8.8-2.4,9.2-13.5,2.4-18.3c-0.3-0.2-0.6-0.4-1-0.7c1.2,1.2,2.4,2.4,3.6,3.6c0.1,0,0.1,0.1,0.2,0.1
				c0,1.8,0,3.5,0,5.3c-0.2-0.1-0.4,0-0.3,0.2c0.8-0.7,1.5-1.4,2.3-2.1c1.8-1.7,3.7-3.4,5.5-5.1c9.5-8.7-4.7-22.9-14.1-14.1
				c-4,3.7-8.9,7.3-11.4,12.2c-3.4,6.8-0.7,13.7,5.2,17.9c0.8-6.1,1.6-12.2,2.4-18.3c3.3-0.9,0.6,1.9,1.4-0.6
				c0.1-0.2,0.9-3.3,0.7-3.5c-0.2-0.3-1.4,0.8-2.4,0.9c-3.6-5.6-5.2-6.7-4.7-3.3c0,0.4,0,0.9,0.1,1.3c0.1,1.8,0.3,3.6,0.8,5.3
				c1,3.6,3.3,6.5,5.9,9.2c1,1,3.1,2.8,1.3,3.5c-3.4,1.2-3.8-2.8-3.1-5.1C65.4,721.2,46.1,715.9,42.2,728.1L42.2,728.1z"/>
		</g>
	</g>
	<g>
		<g>
			<path class="st0" d="M19.2,353.7c12.9,0,12.9-20,0-20C6.3,333.7,6.3,353.7,19.2,353.7L19.2,353.7z"/>
		</g>
	</g>
	<g>
		<g>
			<path class="st0" d="M16.9,346.6c0.4,0,0.8,0,1.2,0c1.4,0.1,2.7-0.2,3.9-0.9c1.2-0.4,2.3-1.1,3.2-2.1c1-0.9,1.7-2,2.1-3.2
				c0.6-1.2,0.9-2.5,0.9-3.9c-0.1-0.9-0.2-1.8-0.4-2.7c-0.5-1.7-1.3-3.2-2.6-4.4c-0.7-0.5-1.3-1-2-1.6c-1.6-0.9-3.2-1.4-5-1.4
				c-0.4,0-0.8,0-1.2,0c-1.4-0.1-2.7,0.2-3.9,0.9c-1.2,0.4-2.3,1.1-3.2,2.1c-1,0.9-1.7,2-2.1,3.2c-0.6,1.2-0.9,2.5-0.9,3.9
				c0.1,0.9,0.2,1.8,0.4,2.7c0.5,1.7,1.3,3.2,2.6,4.4c0.7,0.5,1.3,1,2,1.6C13.4,346.2,15.1,346.6,16.9,346.6L16.9,346.6z"/>
		</g>
	</g>
	<g>
		<g>
			<path class="st0" d="M78.5,750.7c2.7-1.7,8-1.1,12.4-2.3c6.2-1.7,11.1-6.2,12.7-12.4c1.8-6.9-1.4-14.1-6.3-18.9
				c-4.3-4.3-10.7-6-14.4-10.8c-3.3-4.3-10.7-3.5-14.1,0c-4.2,4.2-3.3,9.9,0,14.1c2.7,3.5,6.5,5.9,10.3,8.1c1.4,0.8,2.8,1.9,4.1,2.7
				c1.2,0.7,1.8,4.3,1.6-1.2c0-1.2,1.5-0.7-0.9-0.5c-0.5,0-2,0.2-3.3,0.4c-4.4,0.5-8.4,1.3-12.3,3.6
				C57.5,740.2,67.5,757.5,78.5,750.7L78.5,750.7z"/>
		</g>
	</g>
</g>
<g id="Layer_4">
	<g>
		<g>
			<g>
				<path class="st2" d="M50.8,418.9c-2.8,4.3-5.2,8.5-7.2,12.7c-1,2.1-1.9,4.2-2.8,6.3c-0.8,2.1-1.6,4.3-2.3,6.6
					c-0.7,2.3-1.2,4.8-1.5,7.5c-0.3,2.7-0.3,5.7,0.3,8.9c0.7,3.1,1.8,6.4,3.6,9.5c1.8,3,4.2,5.8,7,8.3c1.9,1.6,4.5,3.6,8.5,5.8
					c2,1,4.4,2.2,7.2,3.2c2.8,1,6.1,2,9.8,2.8c0.8,0.2,1.9,0.4,3.1,0.6c1.2,0.2,2.4,0.3,3.5,0.5c1.1,0.1,2.1,0.2,2.8,0.3
					c0.7,0.1,1.2,0.1,1.2,0.1s0.4,0,1,0.1c0.6,0.1,1.5,0.1,2.4,0.2c1.9,0.2,4.2,0.3,5.7,0.4c9.1,0.5,15.8,1.3,20.8,2.6
					c2.4,0.7,4.5,1.3,6.1,2.1c0.8,0.4,1.6,0.7,2.2,1c0.7,0.4,1.2,0.7,1.8,1c4.3,2.5,7.7,5.4,10.6,8.5c2.9,3.1,5.4,6.3,7.6,9.6
					c2.2,3.3,4,6.9,5.5,10.9c1.5,4,2.7,8.4,3,13.6c2.1-4.7,3.2-9.6,3.5-14.5c0.3-4.9-0.2-9.7-1.6-14.5c-1.4-4.8-3.6-9.6-6.9-14.2
					c-3.3-4.6-7.8-9.1-13.9-12.7c-0.8-0.4-1.6-0.9-2.5-1.5c-0.9-0.5-2.1-1-3.2-1.5c-2.4-1.1-5.1-2-8.4-2.9
					c-6.4-1.8-14.5-2.6-23.7-3.1c-3.1-0.2-8.8-0.6-8.8-0.6s-0.4,0-1.1-0.1c-0.6-0.1-1.5-0.2-2.5-0.3c-0.9-0.1-2-0.3-2.9-0.4
					c-0.9-0.2-1.8-0.3-2.4-0.4c-2.9-0.6-5.4-1.3-7.5-2.1c-2.1-0.7-3.8-1.6-5.2-2.3c-2.8-1.5-4.5-2.8-5.7-3.8c-1.7-1.5-3.1-3-4.2-4.6
					c-1.1-1.5-1.8-3.1-2.5-4.8c-1.2-3.3-1.5-7.2-1.5-11.3c0-2.1,0-4.3,0-6.4c0-2.2,0.1-4.4,0.1-6.6C50.1,428.7,50.3,424,50.8,418.9z
					"/>
			</g>
		</g>
	</g>
	<g>
		<g>
			<g>
				<path class="st2" d="M166.2,690.5c-0.3,1.6-0.4,3.2-0.3,4.7c0,0.7,0.1,1.5,0.3,2.2c0.1,0.7,0.3,1.3,0.6,2c1,2.5,2.7,4.7,5.5,6.4
					c1.5,0.9,4.6,2.5,8.5,3.8c3.8,1.4,8.3,2.5,12.6,3.3c4.3,0.8,8.1,1.3,11,1.7c2.9,0.4,4.7,0.6,4.7,0.6s7.4,1,15.5,1.8
					c4,0.4,8.3,0.8,11.9,1.2c3.7,0.3,6.9,0.5,8.5,0.5c3,0,5.4-0.8,7.6-2.3c2.1-1.5,3.9-3.8,5.5-6.8c-2.8-1.8-4.8-3.5-6.6-4.6
					c-1.9-1.1-3.7-1.8-6.1-1.9c-1.3-0.1-4-0.2-7.4-0.5c-3.5-0.3-7.7-0.7-11.7-1.1c-8-0.8-15.1-1.6-15.1-1.6s-1.8-0.2-4.5-0.6
					c-2.7-0.4-6.5-1-10.2-1.7c-3.7-0.7-7.4-1.7-10.3-2.7c-2.9-1-5.1-2.1-6.1-2.7c-1.9-1-3.6-1.4-5.7-1.4c-0.5,0-1.1,0-1.7,0
					c-0.6,0-1.2,0-1.8,0C169.3,690.7,167.9,690.6,166.2,690.5z"/>
			</g>
		</g>
	</g>
	<g>
		<g>
			<g>
				<path class="st2" d="M771.9,470.5c-2.3,2.1-4.3,3.2-5.7,4.2c-1.5,1-2.4,1.9-3,3.4c-0.3,0.8-1.1,2.5-2.3,4.6
					c-1.2,2.1-3,4.6-4.9,6.9c-1.8,2.3-3.8,4.3-5.3,5.8c-1.5,1.4-2.5,2.3-2.5,2.3s-1,0.8-2.7,2.1c-1.7,1.2-3.9,2.9-6.5,4.4
					c-1.2,0.8-2.6,1.5-3.9,2.2c-1.3,0.6-2.6,1.3-3.8,1.8c-2.4,1.1-4.4,1.7-5.4,2.1c-0.9,0.3-1.7,0.7-2.4,1.3c-0.7,0.6-1.3,1.2-1.9,2
					c-1.1,1.7-2.2,3.8-3.6,6.6c2.2,2.1,4.3,3.7,6.3,4.5c1,0.4,2.1,0.7,3.1,0.8c1.1,0,2.2-0.1,3.3-0.4c1.3-0.4,3.8-1.2,6.8-2.5
					c1.5-0.6,3.1-1.4,4.7-2.2c1.6-0.9,3.2-1.7,4.8-2.7c3.1-1.9,5.9-3.9,8-5.5c2-1.6,3.3-2.7,3.3-2.7s1.2-1.1,3.1-2.8
					c1.8-1.8,4.3-4.2,6.6-7.1c2.3-2.8,4.6-5.9,6.3-8.8c1.7-2.9,2.9-5.7,3.4-7.1c0.9-2.6,0.8-5.1-0.2-7.4
					C776.5,474.1,774.6,472,771.9,470.5z"/>
			</g>
		</g>
	</g>
	<g>
		<g>
			<g>
				<path class="st2" d="M452,60.7c1.9,2,3.8,3.3,5.6,3.8c1.8,0.5,3.4,0.4,4.8-0.5c0.8-0.5,2.2-1.5,3.6-2.6c0.7-0.5,1.4-1.1,2.1-1.6
					c0.7-0.5,1.4-0.9,2-1.3c2.8-1.6,5.8-2.6,5.8-2.6s0.2-0.1,0.5-0.2c0.3-0.1,0.8-0.2,1.4-0.4c1.2-0.3,2.8-0.7,4.7-1
					c3.6-0.6,7.8-0.8,9.2-1c2.6-0.2,4.1-2.9,6.4-8c-2.4-5-4.1-7.6-7.1-7.6c-1.6,0-6.5,0.2-11.1,1c-2.3,0.4-4.5,0.9-6.2,1.4
					c-0.8,0.2-1.5,0.4-2,0.6c-0.5,0.2-0.7,0.2-0.7,0.2s-0.3,0.1-0.7,0.2c-0.5,0.1-1.1,0.4-2,0.7c-1.6,0.6-3.8,1.6-6.1,2.9
					c-1.1,0.7-2.2,1.4-3.2,2.1c-1,0.7-1.9,1.4-2.6,2c-1.3,1-2.5,1.9-3,2.3c-0.9,0.7-1.1,1.7-1.2,3.2C452.2,55.9,452.4,58,452,60.7z"
					/>
			</g>
		</g>
	</g>
	<g>
		<g>
			<g>
				<path class="st2" d="M465.3,746c3.4,5.6,6,8.7,11.2,9.4c2.8,0.4,11.4,1.1,19.2,1c4,0,8.1-0.3,11.2-0.8c3.1-0.5,5.2-1.2,5.2-1.2
					s0.5-0.1,1.4-0.4c0.9-0.3,2.2-0.8,3.8-1.5c3.2-1.4,6.9-4,10.1-6.9c1.6-1.4,3.1-2.9,4.5-4.4c1.4-1.4,2.6-2.8,3.8-4
					c2.3-2.5,4.1-4.7,5-5.7c3.3-4,3.1-8,1.9-14.4c-6.5,0.2-10.3,0.6-13.6,4.2c-0.9,1-2.7,3-4.9,5.4c-1.1,1.2-2.3,2.5-3.5,3.8
					c-1.2,1.3-2.4,2.5-3.6,3.6c-2.4,2.2-4.6,3.7-6.3,4.5c-1.7,0.8-2.9,1.1-2.9,1.1s-1.2,0.4-3.3,0.7c-2.1,0.3-5.2,0.6-8.7,0.6
					c-7.2,0-15-0.6-17.6-0.8C473.3,739.5,470.3,741.8,465.3,746z"/>
			</g>
		</g>
	</g>
</g>
<g id="Layer_1">
	<path class="st3" d="M563.9,308.6c0,0-17.3-54.6-37.1-73.5c-19.9-19-72.3-56.8-138.2-37c-35,10.6-54.8,26.6-73.7,39.3
		c-12,8-40.3,9.2-77.8,42c-27.8,24.3-60.5,83.1-42.7,167.9c9.4,44.7,31.7,87.3,61.9,117.8c57.9,58.5,115.7,52.1,115.7,52.1
		L477.4,580l93.4-124L563.9,308.6L563.9,308.6z"/>
	<path class="st4" d="M532.6,562.2c57.2-46.4,80.8-146.3,56.6-229c-22.6-77.3-77.1-110.5-77.1-110.5s20.7,37.2,31.6,82
		c11.7,48,21.7,132.5-29.9,207.4c-63.4,91.9-172,102.3-172,102.3S431.5,644.2,532.6,562.2L532.6,562.2z"/>
	<path class="st5" d="M254.8,302.1c-9.8-6.3-26.3-2.4-36.8,21.2c-9.6,21.6-7.2,52,5.6,52.6c10.9,0.5,7.9-21.1,16.8-35.1
		C249.3,326.7,269.8,311.7,254.8,302.1L254.8,302.1z"/>
</g>
<g id="Layer_2">
	<path class="st6" d="M333.4,531.3c3,5.9,27.3,13.3,46.5-19.4c19.2-32.7,9.7-46.7,24.1-57.4c14.4-10.6,43.8-6.6,65.8-14.3
		c30.7-10.7,45.7-46,37.9-50.9c-7.9-5-8.6,5.6-23.5,5.1c-15-0.5-50.9-7.9-50.9-7.9s-11.4-12.4-6.7-19.2c11-15.6,17.7-36.8,15.6-52.4
		c-2.5-18.6-14.9-33.3-19.7-33.4c-4.7-0.1,0.4,12.9-2.7,16.1c-3.1,3.1-17,27.7-17,27.7l-23.7,25c0,0-19.9-19-26.5-34.6
		s-15-38.6-17.1-39.7s-6.3,10-6.3,10l-0.2,43.1l23.9,46.4L335.3,421l-57.9,16.2c0,0-37.2,6.6-37.3,8c-0.4,7.7,16.1,6.7,33.7,9.3
		c15.2,2.3,21.9,5.2,34.7,3.1c12.5-2.1,28-9.2,28-9.2l15.8,23.3c0,0-2.5,39-5.5,44.1C343.7,520.7,331.8,528,333.4,531.3L333.4,531.3
		z"/>
	<path class="st7" d="M375.1,431.9c8.3-11.1,33.9-5.8,54.3-7.1c29.7-1.9,47.6-7,59.5-17.4c5.9-5.2,18.3-18.2,18.3-18.2
		s-0.7-3.5-10.6,0.3c-9.9,3.8-23,1.3-28.5-0.9c-5.5-2.2-23.5-9.5-41-11.1s-28,2.8-32.4-3.9c-4.4-6.7,19.3-22.5,27.8-47.4
		c11.3-32.8,1.9-45.3-0.3-45c-2.2,0.3-6,22.8-14,30s-20.6,9.6-28.8,23.2c-5.6,9.3-6.6,21.3-14.7,19.3c-6.8-1.7-20.6-21.9-24-32.4
		c-8.3-25.6-3.1-43.7-5.4-45.3c-4.7-3.2-22.4,20-14.8,49.5c7.6,29.4,33.1,42,19.6,64.4c-4.5,7.5-8.5,8.8-8.5,8.8s-16.7,2.8-34.2,9.8
		c-17.5,7-19.3,19.9-28.8,24.4c-9.4,4.4-30.2,9.6-28.4,12.6c1.7,3,25.8,3,48.5-2c22.7-5.1,39.6-16.5,42.5-8c3,8.5,2.1,18.7,4.9,30.7
		c2.8,12.1,9.2,25.4,7.7,36.7c-1.5,11.3-12.8,24-10.9,28.1c1.9,4.1,23.1-5.9,32.8-37.3C375.3,462.4,360.1,452,375.1,431.9
		L375.1,431.9z"/>
	<path class="st8" d="M319.8,351.9c-3.5,5.2-5.4,13.6-5.4,13.6s0.3,14.3,13.9,29.6c6.3,7,17.4,12.2,22.6,16.5c5.2,4.3,5.9,7.9,9,9.3
		c3.2,1.4,9.7-1.8,17.4-14.3c6.2-10,5.3-18.2,3.7-19.1c-1.6-0.9-22.3-3.2-34.3-15.3c-11.1-11.2-14.5-25.8-16.1-27.5
		C329.8,343.8,325.1,343.9,319.8,351.9z"/>
</g>
</svg>
