<?xml version="1.0" encoding="utf-8"?>
<!-- Generator: Adobe Illustrator 27.2.0, SVG Export Plug-In . SVG Version: 6.00 Build 0)  -->
<svg version="1.1" id="Layer_1" xmlns="http://www.w3.org/2000/svg" xmlns:xlink="http://www.w3.org/1999/xlink" x="0px" y="0px"
	 viewBox="0 0 800 800" style="enable-background:new 0 0 800 800;" xml:space="preserve">
<style type="text/css">
	.st0{fill:#FF2A23;}
	.st1{fill:#DC0D27;}
	.st2{fill:#FED3B0;}
	.st3{fill:#BDCF44;}
	.st4{fill:#94A61D;}
	.st5{fill:#728035;}
</style>
<path class="st0" d="M748.6,432.6c0,0,10.7-81.6-8.8-118.4c-19.4-36.9-79.4-118.3-203.9-133c-66-7.8-110.7,1-151.4,5.8
	c-25.8,3.1-73.9-12.8-160.2,6.8c-64,14.6-161.1,70.9-192.7,192.3c-16.6,63.9-10.3,133,18,191.2C104,688.9,204.9,716.1,204.9,716.1
	l202.9,16.5l245.6-103.9L748.6,432.6L748.6,432.6z"/>
<path class="st1" d="M512.7,743.2C641.8,718,753.4,602.5,772.9,480.2c18.2-114.4-48.7-191.1-48.7-191.1s7.6,61.1-6.6,126.1
	c-15.3,69.6-59.6,185.7-200,251.4c-172.3,80.7-361.1,27.5-361.1,27.5S284.8,787.8,512.7,743.2L512.7,743.2z"/>
<path class="st2" d="M155.8,328.8c-34.3-8.9-77.1,17.1-83.3,93c-5.7,69.6,32,153.4,68.9,143.4c31.4-8.5,1.2-66.6,12.4-114.3
	C165.1,403.1,208.1,342.3,155.8,328.8L155.8,328.8z"/>
<path class="st3" d="M199.2,286.8c-4.9,6.3,6.4,34.1,63.9,33.7c57.4-0.4,67-17.7,92.6-9.9c25.6,7.7,45.5,38.5,73.8,55.3
	c39.5,23.5,96.5,17.5,96.1,7.1c-0.4-10.5-14.3-5.1-26.3-19.8c-12-14.8-33.2-53.7-33.2-53.7s5.9-18.2,18.5-17.6
	c29,1.6,61.3-4.2,79-15.3c21.2-13.2,29.2-33.7,25.4-38.4c-3.9-4.6-15.9,7.9-22.5,6.7c-6.6-1.2-49.2-0.4-49.2-0.4l-51.6-8.4
	c0,0,7.1-30.2,21-45.7s35.8-36.8,35.4-39.5s-18-0.3-18-0.3l-54.3,24.8l-38,50l-72.1,9.3L270,178.2c0,0-39.8-32.1-41.6-31.4
	c-10.1,4.1,5.2,19.4,16.8,37.9c10,16.1,12.1,24.1,25.6,35.3c13.2,10.9,35.3,21.7,35.3,21.7l-15.9,28.7c0,0-51.2,20.2-60.1,20.2
	C221.2,290.7,201.9,283.4,199.2,286.8L199.2,286.8z"/>
<path class="st4" d="M359.4,269.5c20.9,1.6,36.1,29.4,54.9,48.3c27.6,27.6,49.1,41.9,72.3,47.4c11.6,2.7,38.3,7.1,38.3,7.1
	s3.9-2.7-9.3-10.1c-13.2-7.4-21.1-21.5-23.1-28.1c-1.9-6.6-8-28.1-20.8-46c-12.8-17.9-27.2-25.4-22.6-33.6
	c4.6-8.1,44.6,5.6,83.1-0.6c50.8-8.1,58.6-24.4,56.2-26.4c-2.3-1.9-33.8,7.4-49.6,3.9c-15.9-3.5-29.5-14.4-53.5-14.4
	c-16.4,0-32.4,5.9-36.7-3c-3.6-7.5,10-32.6,20.4-42c25.2-22.9,52.4-28.3,52.4-31.4c0-6.4-44.2-10.1-74.8,14.4
	c-30.5,24.3-24.8,56.2-64.4,56.2c-13.2,0-18.3-3.1-18.3-3.1s-17.7-14.6-41.3-27.4s-41.4-7.1-55.1-13.7
	c-13.6-6.6-37.6-23.6-39.9-20.1c-2.3,3.4,18.1,26.7,43.7,45.7c25.6,19,54.3,28.7,46.1,36.4c-8.1,7.8-21.7,12.8-34.5,22.5
	c-12.8,9.7-24.1,23.6-39.6,28.7c-15.5,5.1-41,1.5-44.5,5.8c-3.5,4.2,27,18.9,74.7,10.1C321.3,287.3,321.4,266.7,359.4,269.5
	L359.4,269.5z"/>
<path class="st5" d="M407,29.9c-10.4-0.5-23.6,7.8-23.6,7.8s-19.1,23.3-26.7,81.2c-3.5,26.8,0.3,62.7-0.4,82.5
	c-0.8,19.8-5.1,27.1-3.9,37.2c1.2,10.1,11.8,21.4,36.2,21.2c19.6-0.2,29.8-15.4,29.4-20.8c-0.4-5.4-17.2-60.9-12.4-109.8
	c4.4-45.4,21-76.8,21.7-83.4C427.6,42.2,422.9,30.6,407,29.9z"/>
</svg>
